<svg width="184" height="43" viewBox="0 0 184 43" fill="none" xmlns="http://www.w3.org/2000/svg">
<path d="M177.315 33.6802C177.816 32.9048 178.103 32.0543 178.178 31.1288C178.253 30.2033 178.291 29.2903 178.291 28.3898C177.565 29.3153 176.677 29.9656 175.627 30.3408C174.576 30.7161 173.438 30.9037 172.213 30.9037C170.787 30.9037 169.549 30.691 168.498 30.2658C167.472 29.8406 166.659 29.1902 166.059 28.3147C165.459 27.5143 165.046 26.5763 164.821 25.5007C164.596 24.4001 164.483 23.2119 164.483 21.9362V10.8301H169.774V21.2984C169.774 21.9737 169.824 22.6366 169.924 23.287C170.049 23.9123 170.299 24.4376 170.674 24.8628C171.274 25.7633 172.363 26.2136 173.938 26.2136C174.689 26.2136 175.389 26.0635 176.04 25.7633C176.69 25.4381 177.203 24.9379 177.578 24.2625C177.903 23.6872 178.103 23.0868 178.178 22.4615C178.253 21.8111 178.291 21.1108 178.291 20.3603V10.8301H183.619V27.0765C183.619 27.977 183.606 28.9026 183.581 29.8531C183.581 30.7786 183.506 31.6916 183.356 32.5921C183.231 33.4926 182.993 34.3681 182.643 35.2185C182.293 36.069 181.805 36.8569 181.18 37.5823C180.304 38.5829 179.154 39.3833 177.728 39.9837C176.327 40.584 174.639 40.8717 172.663 40.8466C171.212 40.8717 169.774 40.6715 168.348 40.2463C166.922 39.8461 165.609 39.2583 164.408 38.4828L166.097 33.9804C166.747 34.4556 167.61 34.8934 168.686 35.2936C169.786 35.6938 171.074 35.8939 172.55 35.8939C173.751 35.8939 174.726 35.6938 175.477 35.2936C176.252 34.9184 176.865 34.3806 177.315 33.6802Z" fill="#9F9F9F"/>
<path d="M152.914 26.2142C153.915 26.2142 154.703 25.9766 155.278 25.5013C155.879 25.026 156.241 24.4882 156.366 23.8879H161.919C161.744 25.1636 161.382 26.2392 160.831 27.1147C160.281 27.9902 159.593 28.7156 158.768 29.2909C157.967 29.8662 157.054 30.2789 156.029 30.5291C155.003 30.7792 153.94 30.9043 152.839 30.9043C151.188 30.9043 149.75 30.6792 148.524 30.2289C147.324 29.7536 146.323 29.0783 145.523 28.2028C144.722 27.3023 144.11 26.2267 143.684 24.976C143.284 23.7003 143.084 22.2745 143.084 20.6986C143.084 19.1728 143.309 17.772 143.759 16.4963C144.21 15.2206 144.847 14.1325 145.673 13.232C146.523 12.3315 147.561 11.6436 148.787 11.1684C150.013 10.6681 151.414 10.418 152.989 10.418C154.14 10.418 155.216 10.5555 156.216 10.8307C157.242 11.1058 158.142 11.5311 158.918 12.1064C159.718 12.6817 160.369 13.4196 160.869 14.3201C161.394 15.1956 161.744 16.2462 161.919 17.4719H156.366C156.241 16.8715 155.866 16.3337 155.241 15.8585C154.64 15.3832 153.852 15.1456 152.877 15.1456C152.051 15.1456 151.339 15.2957 150.738 15.5958C150.138 15.896 149.663 16.3087 149.312 16.834C148.962 17.3593 148.712 17.9596 148.562 18.635C148.412 19.3104 148.337 20.0233 148.337 20.7737C148.337 21.5741 148.424 22.312 148.6 22.9874C148.775 23.6378 149.037 24.2131 149.387 24.7134C149.738 25.1886 150.2 25.5638 150.776 25.839C151.376 26.0891 152.089 26.2142 152.914 26.2142Z" fill="#9F9F9F"/>
<path d="M126.974 13.3446C128.575 11.4185 130.551 10.443 132.903 10.418C134.178 10.393 135.304 10.6056 136.28 11.0558C137.255 11.4811 138.043 12.0689 138.643 12.8193C139.369 13.6948 139.869 14.7204 140.144 15.896C140.419 17.0466 140.557 18.3349 140.557 19.7606V30.6041H135.229V20.1734C135.229 19.473 135.154 18.8101 135.004 18.1848C134.879 17.5344 134.654 16.9841 134.328 16.5339C134.003 16.0586 133.566 15.7084 133.015 15.4833C132.49 15.2582 131.89 15.1456 131.214 15.1456C130.364 15.1706 129.638 15.3582 129.038 15.7084C128.463 16.0586 128.025 16.5089 127.725 17.0592C127.425 17.5844 127.212 18.1848 127.087 18.8601C126.987 19.5105 126.937 20.1734 126.937 20.8487V30.6041H121.646V10.8307H126.712L126.974 13.3446Z" fill="#9F9F9F"/>
<path d="M109.748 26.5894C110.498 26.5894 111.136 26.4768 111.662 26.2517C112.212 26.0016 112.662 25.6014 113.012 25.051H118.565C118.29 26.0766 117.865 26.9646 117.29 27.715C116.739 28.4654 116.064 29.0783 115.264 29.5535C114.488 30.0288 113.625 30.379 112.675 30.6041C111.724 30.8042 110.724 30.9043 109.673 30.9043C106.471 30.9043 104.045 30.0038 102.394 28.2028C100.768 26.4018 99.9551 23.8754 99.9551 20.6236C99.9551 19.1478 100.168 17.7845 100.593 16.5338C101.043 15.2832 101.669 14.2076 102.469 13.3071C103.269 12.3816 104.257 11.6687 105.433 11.1684C106.634 10.6681 107.997 10.418 109.523 10.418C111.299 10.418 112.837 10.7306 114.138 11.356C115.439 11.9813 116.464 12.8443 117.215 13.9449C117.99 15.0205 118.503 16.2837 118.753 17.7345C119.028 19.1853 119.028 20.7362 118.753 22.3871H105.246C105.346 23.5627 105.758 24.5633 106.484 25.3887C107.209 26.1892 108.297 26.5894 109.748 26.5894ZM113.838 18.7476C113.838 18.1222 113.725 17.5719 113.5 17.0967C113.275 16.5964 112.975 16.1962 112.6 15.896C112.224 15.5708 111.774 15.3332 111.249 15.1831C110.749 15.033 110.223 14.958 109.673 14.958C108.347 14.983 107.309 15.3457 106.559 16.0461C105.833 16.7214 105.408 17.6219 105.283 18.7476H113.838Z" fill="#9F9F9F"/>
<path d="M91.9741 28.5782C91.2236 29.4287 90.3231 30.029 89.2726 30.3792C88.222 30.7294 87.0839 30.9045 85.8582 30.9045C84.6325 30.9045 83.4318 30.7169 82.2562 30.3417C81.1056 29.9414 80.105 29.3036 79.2545 28.4281C78.304 27.4276 77.6411 26.2769 77.2659 24.9762C76.8907 23.6755 76.7031 22.3372 76.7031 20.9615C76.7031 17.7097 77.6036 15.1082 79.4046 13.1572C80.18 12.3067 81.1806 11.6438 82.4063 11.1686C83.657 10.6933 84.9952 10.4682 86.421 10.4932C87.3465 10.4432 88.347 10.6058 89.4226 10.981C90.4982 11.3562 91.4237 11.9815 92.1992 12.857L92.762 10.8309H97.3395V29.3661C97.3395 30.1666 97.2895 30.9545 97.1894 31.7299C97.1144 32.5304 96.9768 33.2933 96.7767 34.0187C96.5766 34.7691 96.2764 35.482 95.8762 36.1574C95.426 36.9828 94.8757 37.6832 94.2253 38.2585C93.5999 38.8338 92.8996 39.3091 92.1241 39.6843C91.3487 40.0845 90.5233 40.3722 89.6478 40.5473C88.7723 40.7224 87.8843 40.8099 86.9838 40.8099C85.8332 40.8099 84.7326 40.6724 83.682 40.3972C82.6314 40.1471 81.6684 39.7218 80.7929 39.1215C79.9424 38.5462 79.2295 37.8083 78.6542 36.9078C78.1039 36.0073 77.7412 34.9317 77.5661 33.681H83.1942C83.2943 34.2813 83.6945 34.8191 84.3949 35.2944C85.0953 35.7697 85.9457 36.0073 86.9463 36.0073C88.0219 36.0073 88.8974 35.7947 89.5727 35.3694C90.2731 34.9442 90.7984 34.3814 91.1486 33.681C91.4988 32.9806 91.7239 32.1802 91.824 31.2797C91.924 30.3792 91.9741 29.4787 91.9741 28.5782ZM87.0588 26.2144C87.8843 26.2144 88.6097 26.0643 89.235 25.7641C89.8854 25.464 90.4107 25.0637 90.8109 24.5635C91.2111 24.0382 91.5113 23.4378 91.7114 22.7625C91.9115 22.0621 92.0116 21.3242 92.0116 20.5488C92.0116 18.9979 91.5738 17.7222 90.6983 16.7216C89.8479 15.6961 88.6222 15.1708 87.0213 15.1458C86.1959 15.1458 85.458 15.2959 84.8076 15.596C84.1823 15.8962 83.657 16.2964 83.2317 16.7967C82.8315 17.297 82.5313 17.8848 82.3312 18.5602C82.1311 19.2355 82.0311 19.9609 82.0311 20.7364C82.0311 21.5618 82.1311 22.3122 82.3312 22.9876C82.5564 23.638 82.8815 24.2133 83.3068 24.7136C83.732 25.1888 84.2573 25.564 84.8826 25.8392C85.508 26.0893 86.2334 26.2144 87.0588 26.2144Z" fill="#9F9F9F"/>
<path d="M69.1537 28.1653C68.4033 29.1658 67.4903 29.8787 66.4147 30.3039C65.3391 30.7292 64.0884 30.9293 62.6626 30.9043C60.8366 30.8542 59.3108 30.3415 58.0851 29.3659C57.4348 28.8156 56.922 28.1653 56.5468 27.4149C56.1966 26.6394 56.0215 25.7264 56.0215 24.6758C56.0465 23.6002 56.2841 22.6497 56.7344 21.8243C57.2096 20.9738 57.9225 20.2734 58.8731 19.7231C59.6735 19.2979 60.574 18.9977 61.5745 18.8226C62.6001 18.6475 63.7132 18.56 64.9139 18.56H68.9661C69.0412 17.3343 68.7535 16.4213 68.1032 15.821C67.4778 15.1956 66.5898 14.8704 65.4392 14.8454C65.064 14.8454 64.6763 14.8704 64.276 14.9205C63.8758 14.9705 63.5006 15.0705 63.1504 15.2206C62.8252 15.3707 62.5376 15.5833 62.2874 15.8585C62.0623 16.1086 61.9122 16.4213 61.8372 16.7965H56.3967C56.5218 15.5958 56.8469 14.5953 57.3722 13.7948C57.9225 12.9694 58.6104 12.3065 59.4359 11.8062C60.2613 11.306 61.1743 10.9558 62.1749 10.7557C63.2004 10.5305 64.251 10.418 65.3266 10.418C65.927 10.418 66.5398 10.4555 67.1651 10.5305C67.7905 10.5806 68.4033 10.7056 69.0036 10.9057C69.604 11.0808 70.1668 11.331 70.6921 11.6562C71.2424 11.9563 71.7552 12.3565 72.2304 12.8568C73.0809 13.8324 73.6062 14.958 73.8063 16.2337C74.0314 17.4844 74.1315 18.71 74.1065 19.9107V30.6041H69.2663L69.1537 28.1653ZM68.9661 21.8618H65.1015C64.7263 21.8618 64.3011 21.8993 63.8258 21.9743C63.3505 22.0494 62.9378 22.187 62.5876 22.3871C62.2374 22.5872 61.9372 22.8498 61.6871 23.175C61.462 23.5002 61.3494 23.9004 61.3494 24.3757C61.3494 24.7759 61.4245 25.1261 61.5745 25.4263C61.7496 25.7264 61.9623 25.9766 62.2124 26.1767C62.4876 26.3768 62.8127 26.5394 63.1879 26.6644C63.5631 26.7645 63.9384 26.8145 64.3136 26.8145C65.039 26.8395 65.7143 26.7145 66.3397 26.4393C66.99 26.1642 67.5528 25.7764 68.0281 25.2762C68.3283 24.8759 68.5534 24.4257 68.7035 23.9254C68.8786 23.4001 68.9661 22.7123 68.9661 21.8618Z" fill="#9F9F9F"/>
<path fill-rule="evenodd" clip-rule="evenodd" d="M41.6556 22.245C41.4437 25.9493 40.246 29.5378 38.1767 32.6347C35.8862 36.0626 32.6307 38.7344 28.8218 40.3121C25.0129 41.8898 20.8217 42.3026 16.7782 41.4983C12.7347 40.694 9.02052 38.7087 6.10532 35.7935C3.19012 32.8783 1.20484 29.1641 0.400537 25.1206C-0.403766 21.0771 0.00903173 16.8859 1.58673 13.077C3.16442 9.26808 5.83616 6.01256 9.26407 3.7221C12.361 1.65279 15.9495 0.45514 19.6537 0.243164V10.6998C18.014 10.8884 16.4363 11.4647 15.0545 12.388C13.3405 13.5333 12.0046 15.161 11.2158 17.0655C10.4269 18.9699 10.2205 21.0655 10.6227 23.0873C11.0248 25.109 12.0175 26.9661 13.4751 28.4237C14.9327 29.8813 16.7898 30.874 18.8115 31.2761C20.8333 31.6783 22.9289 31.4719 24.8333 30.683C26.7378 29.8942 28.3655 28.5583 29.5108 26.8443C30.4341 25.4625 31.0104 23.8848 31.199 22.245H41.6556Z" fill="#9F9F9F"/>
<path fill-rule="evenodd" clip-rule="evenodd" d="M31.2616 0.209961H22.7344V10.6324H31.2616V19.1594H41.684V10.6324H41.6843V0.209961H39.7774H31.2616Z" fill="#9F9F9F"/>
</svg>
