<svg width="28" height="28" viewBox="0 0 28 28" fill="none" xmlns="http://www.w3.org/2000/svg">
<path d="M25.16 7.2738L20.7784 11.3946L24.9513 22.8703L21.8216 26L15.5882 16.8716L12.4324 19.7405V22.8703L9.3027 26L7.45094 20.536L2 18.6973L5.12973 15.5676H8.25945L11.3892 12.4379L2 6.1784L5.12973 3.04867L16.6054 7.22164L20.7392 2.85306L20.648 2.91827C21.2359 2.33031 22.0333 2 22.8648 2C23.6963 2 24.4938 2.33031 25.0817 2.91827C25.6697 3.50622 26 4.30366 26 5.13516C26 5.96665 25.6697 6.76409 25.0817 7.35205L25.16 7.2738Z" stroke="#235CF2" stroke-width="1.5" stroke-linecap="round" stroke-linejoin="round"/>
</svg>
