<svg width="260" height="57" viewBox="0 0 260 57" fill="none" xmlns="http://www.w3.org/2000/svg">
<path d="M242.039 20.4823H246.684L246.865 22.9135C247.47 21.9942 248.22 21.2927 249.115 20.8089C250.034 20.3009 251.05 20.0469 252.163 20.0469C256.687 20.0469 258.936 22.8167 258.912 28.3564V29.3361H258.948V38.6254H254.05V29.3361H254.013C254.013 27.5944 253.711 26.3849 253.106 25.7075C252.526 25.006 251.679 24.6552 250.566 24.6552C249.381 24.6552 248.474 25.0423 247.845 25.8164C247.24 26.5663 246.938 27.6549 246.938 29.0821V38.6254H242.039V20.4823Z" fill="#9F9F9F"/>
<path d="M229.483 39.0608C227.644 39.0608 225.999 38.6617 224.548 37.8634C223.096 37.0409 221.959 35.916 221.137 34.4888C220.339 33.0373 219.939 31.3923 219.939 29.5538C219.939 27.7153 220.339 26.0825 221.137 24.6552C221.959 23.2038 223.084 22.0789 224.511 21.2806C225.939 20.4581 227.572 20.0469 229.41 20.0469C231.249 20.0469 232.882 20.4581 234.309 21.2806C235.76 22.0789 236.885 23.2038 237.683 24.6552C238.506 26.0825 238.917 27.7153 238.917 29.5538C238.917 31.3923 238.518 33.0373 237.72 34.4888C236.921 35.916 235.796 37.0409 234.345 37.8634C232.918 38.6617 231.297 39.0608 229.483 39.0608ZM224.983 29.5538C224.983 31.0295 225.394 32.239 226.217 33.1825C227.064 34.1017 228.152 34.5613 229.483 34.5613C230.789 34.5613 231.853 34.1017 232.676 33.1825C233.498 32.239 233.91 31.0295 233.91 29.5538C233.91 28.0782 233.486 26.8808 232.64 25.9615C231.817 25.0181 230.741 24.5464 229.41 24.5464C228.128 24.5464 227.064 25.0181 226.217 25.9615C225.394 26.8808 224.983 28.0782 224.983 29.5538Z" fill="#9F9F9F"/>
<path d="M211.644 20.4831H216.543V38.6262H211.644V20.4831ZM214.112 17.6165C213.337 17.6165 212.672 17.3383 212.116 16.782C211.559 16.2256 211.281 15.5724 211.281 14.8225C211.281 14.0484 211.559 13.3832 212.116 12.8268C212.696 12.2704 213.362 11.9922 214.112 11.9922C214.861 11.9922 215.515 12.2704 216.071 12.8268C216.627 13.3832 216.906 14.0484 216.906 14.8225C216.906 15.5724 216.627 16.2256 216.071 16.782C215.539 17.3383 214.886 17.6165 214.112 17.6165Z" fill="#9F9F9F"/>
<path d="M204.23 39.0614C202.222 39.0614 200.686 38.5655 199.621 37.5737C198.581 36.5818 198.061 35.1546 198.061 33.2919V24.6195H195.158V20.4829H198.061V14.8223H202.96V20.4829H207.459V24.6195H202.96V32.2033C202.96 33.0016 203.117 33.5943 203.431 33.9813C203.77 34.3442 204.278 34.5256 204.955 34.5256C205.439 34.5256 205.984 34.3079 206.588 33.8725L208.33 37.5374C207.725 37.997 207.06 38.3599 206.334 38.626C205.609 38.9163 204.907 39.0614 204.23 39.0614Z" fill="#9F9F9F"/>
<path d="M188.184 36.5571C187.168 38.2262 185.499 39.0608 183.176 39.0608C180.999 39.0608 179.306 38.577 178.096 37.6094C176.911 36.6417 176.318 35.275 176.318 33.509C176.318 31.598 176.959 30.1465 178.242 29.1547C179.524 28.1629 181.338 27.667 183.684 27.667H188.002C187.664 25.4172 186.563 24.2924 184.7 24.2924C183.104 24.2924 181.894 24.9697 181.072 26.3244L176.754 24.8366C177.334 23.482 178.278 22.345 179.584 21.4257C180.915 20.5065 182.62 20.0469 184.7 20.0469C187.41 20.0469 189.466 20.8089 190.869 22.3329C192.272 23.8327 192.95 25.9131 192.901 28.5741L192.829 38.6254H188.256L188.184 36.5571ZM181.326 33.3639C181.326 33.8719 181.568 34.2831 182.052 34.5976C182.535 34.8879 183.201 35.033 184.047 35.033C184.797 35.033 185.475 34.8516 186.079 34.4888C186.708 34.1259 187.204 33.6542 187.567 33.0736C187.93 32.493 188.111 31.8882 188.111 31.2593H185.426C183.951 31.2593 182.898 31.4407 182.269 31.8036C181.64 32.1422 181.326 32.6624 181.326 33.3639Z" fill="#9F9F9F"/>
<path d="M166.271 39.0608C164.384 39.0608 162.703 38.6617 161.227 37.8634C159.751 37.0409 158.59 35.916 157.743 34.4888C156.921 33.0373 156.51 31.3923 156.51 29.5538C156.51 27.7153 156.921 26.0825 157.743 24.6552C158.566 23.2038 159.715 22.0789 161.191 21.2806C162.666 20.4581 164.335 20.0469 166.198 20.0469C168.061 20.0469 169.73 20.5065 171.206 21.4257C172.705 22.345 173.794 23.6392 174.471 25.3084L169.863 26.9412C169.524 26.2397 169.004 25.6833 168.303 25.2721C167.601 24.8608 166.827 24.6552 165.98 24.6552C164.674 24.6552 163.61 25.1148 162.787 26.0341C161.965 26.9291 161.554 28.1024 161.554 29.5538C161.554 30.9811 161.965 32.1543 162.787 33.0736C163.634 33.9928 164.723 34.4525 166.053 34.4525C166.9 34.4525 167.674 34.2347 168.375 33.7993C169.077 33.3397 169.597 32.7349 169.936 31.985L174.58 33.6179C173.879 35.3354 172.79 36.678 171.315 37.6456C169.839 38.5891 168.158 39.0608 166.271 39.0608Z" fill="#9F9F9F"/>
<path d="M148.212 20.4831H153.111V38.6262H148.212V20.4831ZM150.68 17.6165C149.906 17.6165 149.241 17.3383 148.684 16.782C148.128 16.2256 147.85 15.5724 147.85 14.8225C147.85 14.0484 148.128 13.3832 148.684 12.8268C149.265 12.2704 149.93 11.9922 150.68 11.9922C151.43 11.9922 152.083 12.2704 152.639 12.8268C153.196 13.3832 153.474 14.0484 153.474 14.8225C153.474 15.5724 153.196 16.2256 152.639 16.782C152.107 17.3383 151.454 17.6165 150.68 17.6165Z" fill="#9F9F9F"/>
<path d="M138.922 12.5H143.821V38.626H138.922V12.5Z" fill="#9F9F9F"/>
<path d="M117.311 20.4823H121.955L122.137 22.9861C122.741 22.0426 123.503 21.3169 124.423 20.8089C125.366 20.3009 126.443 20.0469 127.652 20.0469C129.297 20.0469 130.736 20.4339 131.97 21.208C133.228 21.9821 134.184 23.0828 134.837 24.5101C135.514 25.9373 135.853 27.6186 135.853 29.5538C135.853 31.4649 135.514 33.1462 134.837 34.5976C134.184 36.0249 133.228 37.1255 131.97 37.8996C130.736 38.6738 129.297 39.0608 127.652 39.0608C126.467 39.0608 125.414 38.8189 124.495 38.3351C123.576 37.8271 122.814 37.1134 122.209 36.1942V45.8826H117.311V20.4823ZM122.209 29.5538C122.209 31.0295 122.596 32.239 123.37 33.1825C124.169 34.1017 125.185 34.5613 126.418 34.5613C127.676 34.5613 128.716 34.0896 129.539 33.1462C130.361 32.2027 130.773 31.0053 130.773 29.5538C130.773 28.1024 130.361 26.917 129.539 25.9978C128.741 25.0544 127.713 24.5826 126.455 24.5826C125.197 24.5826 124.169 25.0423 123.37 25.9615C122.596 26.8808 122.209 28.0782 122.209 29.5538Z" fill="#9F9F9F"/>
<path d="M95.5156 20.4823H100.16L100.342 22.9861C100.946 22.0426 101.708 21.3169 102.628 20.8089C103.571 20.3009 104.648 20.0469 105.857 20.0469C107.502 20.0469 108.941 20.4339 110.175 21.208C111.433 21.9821 112.389 23.0828 113.042 24.5101C113.719 25.9373 114.058 27.6186 114.058 29.5538C114.058 31.4649 113.719 33.1462 113.042 34.5976C112.389 36.0249 111.433 37.1255 110.175 37.8996C108.941 38.6738 107.502 39.0608 105.857 39.0608C104.672 39.0608 103.62 38.8189 102.7 38.3351C101.781 37.8271 101.019 37.1134 100.414 36.1942V45.8826H95.5156V20.4823ZM100.414 29.5538C100.414 31.0295 100.801 32.239 101.575 33.1825C102.374 34.1017 103.39 34.5613 104.623 34.5613C105.881 34.5613 106.922 34.0896 107.744 33.1462C108.567 32.2027 108.978 31.0053 108.978 29.5538C108.978 28.1024 108.567 26.917 107.744 25.9978C106.946 25.0544 105.918 24.5826 104.66 24.5826C103.402 24.5826 102.374 25.0423 101.575 25.9615C100.801 26.8808 100.414 28.0782 100.414 29.5538Z" fill="#9F9F9F"/>
<path d="M86.8382 36.5571C85.8222 38.2262 84.153 39.0608 81.8307 39.0608C79.6536 39.0608 77.9602 38.577 76.7507 37.6094C75.5653 36.6417 74.9727 35.275 74.9727 33.509C74.9727 31.598 75.6137 30.1465 76.8958 29.1547C78.1779 28.1629 79.9922 27.667 82.3387 27.667H86.6568C86.3181 25.4172 85.2174 24.2924 83.3548 24.2924C81.7582 24.2924 80.5486 24.9697 79.7261 26.3244L75.4081 24.8366C75.9887 23.482 76.9321 22.345 78.2384 21.4257C79.5689 20.5065 81.2743 20.0469 83.3548 20.0469C86.0641 20.0469 88.1203 20.8089 89.5234 22.3329C90.9265 23.8327 91.6038 25.9131 91.5554 28.5741L91.4828 38.6254H86.9108L86.8382 36.5571ZM79.9801 33.3639C79.9801 33.8719 80.222 34.2831 80.7059 34.5976C81.1897 34.8879 81.8549 35.033 82.7016 35.033C83.4515 35.033 84.1289 34.8516 84.7336 34.4888C85.3626 34.1259 85.8585 33.6542 86.2214 33.0736C86.5842 32.493 86.7656 31.8882 86.7656 31.2593H84.0805C82.6048 31.2593 81.5525 31.4407 80.9236 31.8036C80.2946 32.1422 79.9801 32.6624 79.9801 33.3639Z" fill="#9F9F9F"/>
<path fill-rule="evenodd" clip-rule="evenodd" d="M25.1221 45.3324H13.4017C6.50065 45.3324 0.90625 39.738 0.90625 32.837C0.90625 26.7511 5.54438 21.7485 11.4787 21.1712C11.8971 15.0778 16.9726 10.2646 23.1722 10.2646H23.5592C26.8941 10.2646 29.9142 11.6129 32.104 13.794C35.0399 11.5784 38.6945 10.2646 42.656 10.2646H43.5364C52.7339 10.2646 60.1899 17.7207 60.1899 26.9182C60.1899 37.0881 51.9455 45.3325 41.7756 45.3325H25.1221V45.3324Z" fill="#9F9F9F"/>
</svg>
