<svg width="1884" height="1554" viewBox="0 0 1884 1554" fill="none" xmlns="http://www.w3.org/2000/svg">
<g opacity="0.2">
<rect width="155.2" height="155.2" transform="matrix(0.866025 0.5 -2.20305e-08 1 1.00098 78.5992)" stroke="#9F9F9F" stroke-linejoin="round"/>
<rect width="155.2" height="155.2" transform="matrix(0.866025 0.5 -0.866025 0.5 135.407 1.00012)" stroke="#9F9F9F" stroke-linejoin="round"/>
<rect width="155.2" height="155.2" transform="matrix(0.866025 -0.5 2.20305e-08 1 135.407 156.202)" stroke="#9F9F9F" stroke-linejoin="round"/>
<rect width="155.2" height="155.2" transform="matrix(0.866025 0.5 -2.20305e-08 1 1.00098 389)" stroke="#9F9F9F" stroke-linejoin="round"/>
<rect width="155.2" height="155.2" transform="matrix(0.866025 0.5 -0.866025 0.5 135.407 311.4)" stroke="#9F9F9F" stroke-linejoin="round"/>
<rect width="155.2" height="155.2" transform="matrix(0.866025 -0.5 2.20305e-08 1 135.407 466.599)" stroke="#9F9F9F" stroke-linejoin="round"/>
<rect width="155.2" height="155.2" transform="matrix(0.866025 0.5 -2.20305e-08 1 1.00098 699.397)" stroke="#9F9F9F" stroke-linejoin="round"/>
<rect width="155.2" height="155.2" transform="matrix(0.866025 0.5 -0.866025 0.5 135.407 621.798)" stroke="#9F9F9F" stroke-linejoin="round"/>
<rect width="155.2" height="155.2" transform="matrix(0.866025 -0.5 2.20305e-08 1 135.407 776.997)" stroke="#9F9F9F" stroke-linejoin="round"/>
<rect width="155.2" height="155.2" transform="matrix(0.866025 0.5 -2.20305e-08 1 1.00146 1009.8)" stroke="#9F9F9F" stroke-linejoin="round"/>
<rect width="155.2" height="155.2" transform="matrix(0.866025 0.5 -0.866025 0.5 135.407 932.198)" stroke="#9F9F9F" stroke-linejoin="round"/>
<rect width="155.2" height="155.2" transform="matrix(0.866025 -0.5 2.20305e-08 1 135.407 1087.4)" stroke="#9F9F9F" stroke-linejoin="round"/>
<rect width="155.2" height="155.2" transform="matrix(0.866025 0.5 -2.20305e-08 1 1.00098 1320.2)" stroke="#9F9F9F" stroke-linejoin="round"/>
<rect width="155.2" height="155.2" transform="matrix(0.866025 0.5 -0.866025 0.5 135.407 1242.6)" stroke="#9F9F9F" stroke-linejoin="round"/>
<rect width="155.2" height="155.2" transform="matrix(0.866025 -0.5 2.20305e-08 1 135.407 1397.8)" stroke="#9F9F9F" stroke-linejoin="round"/>
<rect width="155.2" height="155.2" transform="matrix(0.866025 0.5 -2.20305e-08 1 269.816 78.5991)" stroke="#9F9F9F" stroke-linejoin="round"/>
<rect width="155.2" height="155.2" transform="matrix(0.866025 0.5 -0.866025 0.5 404.222 1)" stroke="#9F9F9F" stroke-linejoin="round"/>
<rect width="155.2" height="155.2" transform="matrix(0.866025 -0.5 2.20305e-08 1 404.222 156.201)" stroke="#9F9F9F" stroke-linejoin="round"/>
<rect width="155.2" height="155.2" transform="matrix(0.866025 0.5 -2.20305e-08 1 269.816 389)" stroke="#9F9F9F" stroke-linejoin="round"/>
<rect width="155.2" height="155.2" transform="matrix(0.866025 0.5 -0.866025 0.5 404.222 311.4)" stroke="#9F9F9F" stroke-linejoin="round"/>
<rect width="155.2" height="155.2" transform="matrix(0.866025 -0.5 2.20305e-08 1 404.222 466.599)" stroke="#9F9F9F" stroke-linejoin="round"/>
<rect width="155.2" height="155.2" transform="matrix(0.866025 0.5 -2.20305e-08 1 269.816 699.397)" stroke="#9F9F9F" stroke-linejoin="round"/>
<rect width="155.2" height="155.2" transform="matrix(0.866025 0.5 -0.866025 0.5 404.222 621.798)" stroke="#9F9F9F" stroke-linejoin="round"/>
<rect width="155.2" height="155.2" transform="matrix(0.866025 -0.5 2.20305e-08 1 404.222 776.997)" stroke="#9F9F9F" stroke-linejoin="round"/>
<rect width="155.2" height="155.2" transform="matrix(0.866025 0.5 -2.20305e-08 1 269.816 1009.8)" stroke="#9F9F9F" stroke-linejoin="round"/>
<rect width="155.2" height="155.2" transform="matrix(0.866025 0.5 -0.866025 0.5 404.222 932.198)" stroke="#9F9F9F" stroke-linejoin="round"/>
<rect width="155.2" height="155.2" transform="matrix(0.866025 -0.5 2.20305e-08 1 404.222 1087.4)" stroke="#9F9F9F" stroke-linejoin="round"/>
<rect width="155.2" height="155.2" transform="matrix(0.866025 0.5 -2.20305e-08 1 269.816 1320.2)" stroke="#9F9F9F" stroke-linejoin="round"/>
<rect width="155.2" height="155.2" transform="matrix(0.866025 0.5 -0.866025 0.5 404.222 1242.6)" stroke="#9F9F9F" stroke-linejoin="round"/>
<rect width="155.2" height="155.2" transform="matrix(0.866025 -0.5 2.20305e-08 1 404.222 1397.8)" stroke="#9F9F9F" stroke-linejoin="round"/>
<rect width="155.2" height="155.2" transform="matrix(0.866025 0.5 -2.20305e-08 1 538.63 78.5991)" stroke="#9F9F9F" stroke-linejoin="round"/>
<rect width="155.2" height="155.2" transform="matrix(0.866025 0.5 -0.866025 0.5 673.036 1)" stroke="#9F9F9F" stroke-linejoin="round"/>
<rect width="155.2" height="155.2" transform="matrix(0.866025 -0.5 2.20305e-08 1 673.036 156.201)" stroke="#9F9F9F" stroke-linejoin="round"/>
<rect width="155.2" height="155.2" transform="matrix(0.866025 0.5 -2.20305e-08 1 538.63 389)" stroke="#9F9F9F" stroke-linejoin="round"/>
<rect width="155.2" height="155.2" transform="matrix(0.866025 0.5 -0.866025 0.5 673.036 311.4)" stroke="#9F9F9F" stroke-linejoin="round"/>
<rect width="155.2" height="155.2" transform="matrix(0.866025 -0.5 2.20305e-08 1 673.036 466.599)" stroke="#9F9F9F" stroke-linejoin="round"/>
<rect width="155.2" height="155.2" transform="matrix(0.866025 0.5 -2.20305e-08 1 538.63 699.397)" stroke="#9F9F9F" stroke-linejoin="round"/>
<rect width="155.2" height="155.2" transform="matrix(0.866025 0.5 -0.866025 0.5 673.036 621.798)" stroke="#9F9F9F" stroke-linejoin="round"/>
<rect width="155.2" height="155.2" transform="matrix(0.866025 -0.5 2.20305e-08 1 673.036 776.997)" stroke="#9F9F9F" stroke-linejoin="round"/>
<rect width="155.2" height="155.2" transform="matrix(0.866025 0.5 -2.20305e-08 1 538.63 1009.8)" stroke="#9F9F9F" stroke-linejoin="round"/>
<rect width="155.2" height="155.2" transform="matrix(0.866025 0.5 -0.866025 0.5 673.036 932.198)" stroke="#9F9F9F" stroke-linejoin="round"/>
<rect width="155.2" height="155.2" transform="matrix(0.866025 -0.5 2.20305e-08 1 673.036 1087.4)" stroke="#9F9F9F" stroke-linejoin="round"/>
<rect width="155.2" height="155.2" transform="matrix(0.866025 0.5 -2.20305e-08 1 538.63 1320.2)" stroke="#9F9F9F" stroke-linejoin="round"/>
<rect width="155.2" height="155.2" transform="matrix(0.866025 0.5 -0.866025 0.5 673.036 1242.6)" stroke="#9F9F9F" stroke-linejoin="round"/>
<rect width="155.2" height="155.2" transform="matrix(0.866025 -0.5 2.20305e-08 1 673.036 1397.8)" stroke="#9F9F9F" stroke-linejoin="round"/>
<rect width="155.2" height="155.2" transform="matrix(0.866025 0.5 -2.20305e-08 1 807.444 78.5991)" stroke="#9F9F9F" stroke-linejoin="round"/>
<rect width="155.2" height="155.2" transform="matrix(0.866025 0.5 -0.866025 0.5 941.85 1)" stroke="#9F9F9F" stroke-linejoin="round"/>
<rect width="155.2" height="155.2" transform="matrix(0.866025 -0.5 2.20305e-08 1 941.85 156.201)" stroke="#9F9F9F" stroke-linejoin="round"/>
<rect width="155.2" height="155.2" transform="matrix(0.866025 0.5 -2.20305e-08 1 807.444 389)" stroke="#9F9F9F" stroke-linejoin="round"/>
<rect width="155.2" height="155.2" transform="matrix(0.866025 0.5 -0.866025 0.5 941.85 311.4)" stroke="#9F9F9F" stroke-linejoin="round"/>
<rect width="155.2" height="155.2" transform="matrix(0.866025 -0.5 2.20305e-08 1 941.85 466.599)" stroke="#9F9F9F" stroke-linejoin="round"/>
<rect width="155.2" height="155.2" transform="matrix(0.866025 0.5 -2.20305e-08 1 807.444 699.397)" stroke="#9F9F9F" stroke-linejoin="round"/>
<rect width="155.2" height="155.2" transform="matrix(0.866025 0.5 -0.866025 0.5 941.85 621.798)" stroke="#9F9F9F" stroke-linejoin="round"/>
<rect width="155.2" height="155.2" transform="matrix(0.866025 -0.5 2.20305e-08 1 941.85 776.997)" stroke="#9F9F9F" stroke-linejoin="round"/>
<rect width="155.2" height="155.2" transform="matrix(0.866025 0.5 -2.20305e-08 1 807.444 1009.8)" stroke="#9F9F9F" stroke-linejoin="round"/>
<rect width="155.2" height="155.2" transform="matrix(0.866025 0.5 -0.866025 0.5 941.85 932.198)" stroke="#9F9F9F" stroke-linejoin="round"/>
<rect width="155.2" height="155.2" transform="matrix(0.866025 -0.5 2.20305e-08 1 941.85 1087.4)" stroke="#9F9F9F" stroke-linejoin="round"/>
<rect width="155.2" height="155.2" transform="matrix(0.866025 0.5 -2.20305e-08 1 807.444 1320.2)" stroke="#9F9F9F" stroke-linejoin="round"/>
<rect width="155.2" height="155.2" transform="matrix(0.866025 0.5 -0.866025 0.5 941.85 1242.6)" stroke="#9F9F9F" stroke-linejoin="round"/>
<rect width="155.2" height="155.2" transform="matrix(0.866025 -0.5 2.20305e-08 1 941.85 1397.8)" stroke="#9F9F9F" stroke-linejoin="round"/>
<rect width="155.2" height="155.2" transform="matrix(0.866025 0.5 -2.20305e-08 1 1076.25 78.5991)" stroke="#9F9F9F" stroke-linejoin="round"/>
<rect width="155.2" height="155.2" transform="matrix(0.866025 0.5 -0.866025 0.5 1210.66 1)" stroke="#9F9F9F" stroke-linejoin="round"/>
<rect width="155.2" height="155.2" transform="matrix(0.866025 -0.5 2.20305e-08 1 1210.66 156.201)" stroke="#9F9F9F" stroke-linejoin="round"/>
<rect width="155.2" height="155.2" transform="matrix(0.866025 0.5 -2.20305e-08 1 1076.25 389)" stroke="#9F9F9F" stroke-linejoin="round"/>
<rect width="155.2" height="155.2" transform="matrix(0.866025 0.5 -0.866025 0.5 1210.66 311.4)" stroke="#9F9F9F" stroke-linejoin="round"/>
<rect width="155.2" height="155.2" transform="matrix(0.866025 -0.5 2.20305e-08 1 1210.66 466.599)" stroke="#9F9F9F" stroke-linejoin="round"/>
<rect width="155.2" height="155.2" transform="matrix(0.866025 0.5 -2.20305e-08 1 1076.25 1009.8)" stroke="#9F9F9F" stroke-linejoin="round"/>
<rect width="155.2" height="155.2" transform="matrix(0.866025 0.5 -0.866025 0.5 1210.66 932.198)" stroke="#9F9F9F" stroke-linejoin="round"/>
<rect width="155.2" height="155.2" transform="matrix(0.866025 -0.5 2.20305e-08 1 1210.66 1087.4)" stroke="#9F9F9F" stroke-linejoin="round"/>
<rect width="155.2" height="155.2" transform="matrix(0.866025 0.5 -2.20305e-08 1 1076.25 1320.2)" stroke="#9F9F9F" stroke-linejoin="round"/>
<rect width="155.2" height="155.2" transform="matrix(0.866025 0.5 -0.866025 0.5 1210.66 1242.6)" stroke="#9F9F9F" stroke-linejoin="round"/>
<rect width="155.2" height="155.2" transform="matrix(0.866025 -0.5 2.20305e-08 1 1210.66 1397.8)" stroke="#9F9F9F" stroke-linejoin="round"/>
<rect width="155.2" height="155.2" transform="matrix(0.866025 0.5 -2.20305e-08 1 1345.07 78.5991)" stroke="#9F9F9F" stroke-linejoin="round"/>
<rect width="155.2" height="155.2" transform="matrix(0.866025 0.5 -0.866025 0.5 1479.47 1)" stroke="#9F9F9F" stroke-linejoin="round"/>
<rect width="155.2" height="155.2" transform="matrix(0.866025 -0.5 2.20305e-08 1 1479.47 156.201)" stroke="#9F9F9F" stroke-linejoin="round"/>
<rect width="155.2" height="155.2" transform="matrix(0.866025 0.5 -2.20305e-08 1 1345.07 389)" stroke="#9F9F9F" stroke-linejoin="round"/>
<rect width="155.2" height="155.2" transform="matrix(0.866025 0.5 -0.866025 0.5 1479.47 311.4)" stroke="#9F9F9F" stroke-linejoin="round"/>
<rect width="155.2" height="155.2" transform="matrix(0.866025 -0.5 2.20305e-08 1 1479.47 466.599)" stroke="#9F9F9F" stroke-linejoin="round"/>
<rect width="155.2" height="155.2" transform="matrix(0.866025 0.5 -2.20305e-08 1 1345.07 699.397)" stroke="#9F9F9F" stroke-linejoin="round"/>
<rect width="155.2" height="155.2" transform="matrix(0.866025 0.5 -0.866025 0.5 1479.47 621.798)" stroke="#9F9F9F" stroke-linejoin="round"/>
<rect width="155.2" height="155.2" transform="matrix(0.866025 -0.5 2.20305e-08 1 1479.47 776.997)" stroke="#9F9F9F" stroke-linejoin="round"/>
<rect width="155.2" height="155.2" transform="matrix(0.866025 0.5 -2.20305e-08 1 1345.07 1009.8)" stroke="#9F9F9F" stroke-linejoin="round"/>
<rect width="155.2" height="155.2" transform="matrix(0.866025 0.5 -0.866025 0.5 1479.47 932.198)" stroke="#9F9F9F" stroke-linejoin="round"/>
<rect width="155.2" height="155.2" transform="matrix(0.866025 -0.5 2.20305e-08 1 1479.47 1087.4)" stroke="#9F9F9F" stroke-linejoin="round"/>
<rect width="155.2" height="155.2" transform="matrix(0.866025 0.5 -2.20305e-08 1 1345.07 1320.2)" stroke="#9F9F9F" stroke-linejoin="round"/>
<rect width="155.2" height="155.2" transform="matrix(0.866025 0.5 -0.866025 0.5 1479.47 1242.6)" stroke="#9F9F9F" stroke-linejoin="round"/>
<rect width="155.2" height="155.2" transform="matrix(0.866025 -0.5 2.20305e-08 1 1479.47 1397.8)" stroke="#9F9F9F" stroke-linejoin="round"/>
<rect width="155.2" height="155.2" transform="matrix(0.866025 0.5 -2.20305e-08 1 1613.88 78.5991)" stroke="#9F9F9F" stroke-linejoin="round"/>
<rect width="155.2" height="155.2" transform="matrix(0.866025 0.5 -0.866025 0.5 1748.29 1)" stroke="#9F9F9F" stroke-linejoin="round"/>
<rect width="155.2" height="155.2" transform="matrix(0.866025 -0.5 2.20305e-08 1 1748.29 156.201)" stroke="#9F9F9F" stroke-linejoin="round"/>
<rect width="155.2" height="155.2" transform="matrix(0.866025 0.5 -2.20305e-08 1 1613.88 389)" stroke="#9F9F9F" stroke-linejoin="round"/>
<rect width="155.2" height="155.2" transform="matrix(0.866025 0.5 -0.866025 0.5 1748.29 311.4)" stroke="#9F9F9F" stroke-linejoin="round"/>
<rect width="155.2" height="155.2" transform="matrix(0.866025 -0.5 2.20305e-08 1 1748.29 466.599)" stroke="#9F9F9F" stroke-linejoin="round"/>
<rect width="155.2" height="155.2" transform="matrix(0.866025 0.5 -2.20305e-08 1 1613.88 699.397)" stroke="#9F9F9F" stroke-linejoin="round"/>
<rect width="155.2" height="155.2" transform="matrix(0.866025 0.5 -0.866025 0.5 1748.29 621.798)" stroke="#9F9F9F" stroke-linejoin="round"/>
<rect width="155.2" height="155.2" transform="matrix(0.866025 -0.5 2.20305e-08 1 1748.29 776.997)" stroke="#9F9F9F" stroke-linejoin="round"/>
<rect width="155.2" height="155.2" transform="matrix(0.866025 0.5 -2.20305e-08 1 1613.88 1009.8)" stroke="#9F9F9F" stroke-linejoin="round"/>
<rect width="155.2" height="155.2" transform="matrix(0.866025 0.5 -0.866025 0.5 1748.29 932.198)" stroke="#9F9F9F" stroke-linejoin="round"/>
<rect width="155.2" height="155.2" transform="matrix(0.866025 -0.5 2.20305e-08 1 1748.29 1087.4)" stroke="#9F9F9F" stroke-linejoin="round"/>
<rect width="155.2" height="155.2" transform="matrix(0.866025 0.5 -2.20305e-08 1 1613.88 1320.2)" stroke="#9F9F9F" stroke-linejoin="round"/>
<rect width="155.2" height="155.2" transform="matrix(0.866025 0.5 -0.866025 0.5 1748.29 1242.6)" stroke="#9F9F9F" stroke-linejoin="round"/>
<rect width="155.2" height="155.2" transform="matrix(0.866025 -0.5 2.20305e-08 1 1748.29 1397.8)" stroke="#9F9F9F" stroke-linejoin="round"/>
<rect width="155.2" height="155.2" transform="matrix(0.866025 0.5 -2.20305e-08 1 1076.25 699.397)" stroke="#9F9F9F" stroke-linejoin="round"/>
<rect width="155.2" height="155.2" transform="matrix(0.866025 0.5 -0.866025 0.5 1210.66 621.798)" stroke="#9F9F9F" stroke-linejoin="round"/>
<rect width="155.2" height="155.2" transform="matrix(0.866025 -0.5 2.20305e-08 1 1210.66 776.997)" stroke="#9F9F9F" stroke-linejoin="round"/>
</g>
</svg>
