<svg width="174" height="42" viewBox="0 0 174 42" fill="none" xmlns="http://www.w3.org/2000/svg">
<rect width="14.2247" height="13.082" transform="matrix(0.888005 0.459834 -2.45628e-08 1 4.26904 4.24597)" fill="#235CF2"/>
<rect width="23.4582" height="13.082" transform="matrix(0.888005 -0.459834 2.45628e-08 1 16.9004 10.7869)" fill="#235CF2"/>
<rect width="14.2247" height="13.082" transform="matrix(0.888005 0.459834 -2.45628e-08 1 4.26904 22.3771)" fill="#235CF2"/>
<rect width="23.4582" height="13.082" transform="matrix(0.888005 -0.459834 2.45628e-08 1 16.9004 28.918)" fill="#235CF2"/>
<path d="M64.32 32.384C62.0587 32.384 60.1173 31.904 58.496 30.944C56.8747 29.9627 55.6267 28.608 54.752 26.88C53.8773 25.1307 53.44 23.1147 53.44 20.832C53.44 18.5493 53.8773 16.5333 54.752 14.784C55.6267 13.0347 56.8747 11.6693 58.496 10.688C60.1173 9.70667 62.0587 9.216 64.32 9.216C67.008 9.216 69.2053 9.888 70.912 11.232C72.64 12.5547 73.7173 14.4213 74.144 16.832H69.632C69.3547 15.616 68.7573 14.6667 67.84 13.984C66.944 13.28 65.7493 12.928 64.256 12.928C62.1867 12.928 60.5653 13.632 59.392 15.04C58.2187 16.448 57.632 18.3787 57.632 20.832C57.632 23.2853 58.2187 25.216 59.392 26.624C60.5653 28.0107 62.1867 28.704 64.256 28.704C65.7493 28.704 66.944 28.384 67.84 27.744C68.7573 27.0827 69.3547 26.176 69.632 25.024H74.144C73.7173 27.328 72.64 29.1307 70.912 30.432C69.2053 31.7333 67.008 32.384 64.32 32.384ZM83.1458 32.384C81.7804 32.384 80.6604 32.1707 79.7858 31.744C78.9111 31.296 78.2604 30.7093 77.8338 29.984C77.4071 29.2587 77.1938 28.4587 77.1938 27.584C77.1938 26.112 77.7698 24.9173 78.9218 24C80.0738 23.0827 81.8018 22.624 84.1058 22.624H88.1378V22.24C88.1378 21.152 87.8284 20.352 87.2098 19.84C86.5911 19.328 85.8231 19.072 84.9058 19.072C84.0738 19.072 83.3484 19.2747 82.7298 19.68C82.1111 20.064 81.7271 20.64 81.5778 21.408H77.5778C77.6844 20.256 78.0684 19.2533 78.7298 18.4C79.4124 17.5467 80.2871 16.896 81.3538 16.448C82.4204 15.9787 83.6151 15.744 84.9378 15.744C87.1991 15.744 88.9804 16.3093 90.2818 17.44C91.5831 18.5707 92.2338 20.1707 92.2338 22.24V32H88.7458L88.3618 29.44C87.8924 30.2933 87.2311 30.9973 86.3778 31.552C85.5458 32.1067 84.4684 32.384 83.1458 32.384ZM84.0738 29.184C85.2471 29.184 86.1538 28.8 86.7938 28.032C87.4551 27.264 87.8711 26.3147 88.0418 25.184H84.5538C83.4658 25.184 82.6871 25.3867 82.2178 25.792C81.7484 26.176 81.5138 26.656 81.5138 27.232C81.5138 27.8507 81.7484 28.3307 82.2178 28.672C82.6871 29.0133 83.3058 29.184 84.0738 29.184ZM96.1425 32V16.128H99.7905L100.175 19.104C100.751 18.08 101.529 17.2693 102.51 16.672C103.513 16.0533 104.687 15.744 106.031 15.744V20.064H104.879C103.983 20.064 103.183 20.2027 102.479 20.48C101.775 20.7573 101.22 21.2373 100.815 21.92C100.431 22.6027 100.239 23.552 100.239 24.768V32H96.1425ZM115.175 27.264C114.407 27.264 113.692 27.1787 113.031 27.008L111.847 28.192C112.21 28.384 112.7 28.544 113.319 28.672C113.938 28.8 114.94 28.928 116.327 29.056C118.439 29.248 119.975 29.7493 120.935 30.56C121.895 31.3707 122.375 32.4907 122.375 33.92C122.375 34.8587 122.119 35.744 121.607 36.576C121.095 37.4293 120.306 38.112 119.239 38.624C118.172 39.1573 116.807 39.424 115.143 39.424C112.882 39.424 111.058 38.9973 109.671 38.144C108.284 37.312 107.591 36.0533 107.591 34.368C107.591 32.9387 108.284 31.7013 109.671 30.656C109.244 30.464 108.871 30.2613 108.551 30.048C108.252 29.8347 107.986 29.6107 107.751 29.376V28.64L110.535 25.696C109.298 24.608 108.679 23.2107 108.679 21.504C108.679 20.4373 108.935 19.4667 109.447 18.592C109.98 17.7173 110.727 17.024 111.687 16.512C112.647 16 113.81 15.744 115.175 15.744C116.071 15.744 116.903 15.872 117.671 16.128H123.687V18.624L120.967 18.816C121.394 19.6267 121.607 20.5227 121.607 21.504C121.607 22.5707 121.351 23.5413 120.839 24.416C120.327 25.2907 119.58 25.984 118.599 26.496C117.639 27.008 116.498 27.264 115.175 27.264ZM115.175 24.128C116.007 24.128 116.69 23.904 117.223 23.456C117.778 23.008 118.055 22.368 118.055 21.536C118.055 20.704 117.778 20.064 117.223 19.616C116.69 19.168 116.007 18.944 115.175 18.944C114.3 18.944 113.596 19.168 113.063 19.616C112.53 20.064 112.263 20.704 112.263 21.536C112.263 22.368 112.53 23.008 113.063 23.456C113.596 23.904 114.3 24.128 115.175 24.128ZM111.335 33.952C111.335 34.7413 111.698 35.328 112.423 35.712C113.17 36.1173 114.076 36.32 115.143 36.32C116.167 36.32 116.999 36.1067 117.639 35.68C118.279 35.2747 118.599 34.72 118.599 34.016C118.599 33.44 118.386 32.96 117.959 32.576C117.554 32.192 116.732 31.9573 115.495 31.872C114.62 31.808 113.81 31.712 113.063 31.584C112.444 31.9253 111.996 32.2987 111.719 32.704C111.463 33.1093 111.335 33.5253 111.335 33.952ZM133.665 32.384C132.129 32.384 130.742 32.032 129.505 31.328C128.289 30.624 127.318 29.6533 126.593 28.416C125.889 27.1573 125.537 25.7067 125.537 24.064C125.537 22.4213 125.899 20.9813 126.625 19.744C127.35 18.4853 128.321 17.504 129.537 16.8C130.774 16.096 132.161 15.744 133.697 15.744C135.211 15.744 136.577 16.096 137.793 16.8C139.03 17.504 140.001 18.4853 140.705 19.744C141.43 20.9813 141.793 22.4213 141.793 24.064C141.793 25.7067 141.43 27.1573 140.705 28.416C140.001 29.6533 139.03 30.624 137.793 31.328C136.555 32.032 135.179 32.384 133.665 32.384ZM133.665 28.832C134.731 28.832 135.659 28.4373 136.449 27.648C137.238 26.8373 137.633 25.6427 137.633 24.064C137.633 22.4853 137.238 21.3013 136.449 20.512C135.659 19.7013 134.742 19.296 133.697 19.296C132.609 19.296 131.67 19.7013 130.881 20.512C130.113 21.3013 129.729 22.4853 129.729 24.064C129.729 25.6427 130.113 26.8373 130.881 27.648C131.67 28.4373 132.598 28.832 133.665 28.832ZM152.088 32L159.096 20.672L151.992 9.6H156.696L161.72 17.408L166.328 9.6H170.936L163.928 20.864L171.096 32H166.392L161.304 24.096L156.696 32H152.088Z" fill="#040404"/>
</svg>
