<svg width="80" height="80" viewBox="0 0 80 80" fill="none" xmlns="http://www.w3.org/2000/svg">
<path d="M0.5 0.5H79.5V79.5H0.5V0.5Z" fill="white" stroke="#ECECEC"/>
<path fill-rule="evenodd" clip-rule="evenodd" d="M56.3104 30.0651C59.8316 30.0651 62.6862 27.2105 62.6862 23.6893C62.6862 20.168 59.8316 17.3135 56.3104 17.3135C52.7891 17.3135 49.9346 20.168 49.9346 23.6893C49.9346 27.2105 52.7891 30.0651 56.3104 30.0651Z" fill="#8055FA"/>
<path fill-rule="evenodd" clip-rule="evenodd" d="M56.3101 46.0784C59.8314 46.0784 62.6859 43.2239 62.6859 39.7028C62.6859 36.1816 59.8314 33.3271 56.3101 33.3271C52.7889 33.3271 49.9343 36.1816 49.9343 39.7028C49.9343 43.2239 52.7889 46.0784 56.3101 46.0784Z" fill="#7550FB"/>
<path fill-rule="evenodd" clip-rule="evenodd" d="M56.3101 62.6862C59.8314 62.6862 62.6859 59.8316 62.6859 56.3104C62.6859 52.7891 59.8314 49.9346 56.3101 49.9346C52.7889 49.9346 49.9343 52.7891 49.9343 56.3104C49.9343 59.8316 52.7889 62.6862 56.3101 62.6862Z" fill="#6A4AFC"/>
<path fill-rule="evenodd" clip-rule="evenodd" d="M39.7037 46.0784C43.2249 46.0784 46.0793 43.2239 46.0793 39.7028C46.0793 36.1816 43.2249 33.3271 39.7037 33.3271C36.1826 33.3271 33.3281 36.1816 33.3281 39.7028C33.3281 43.2239 36.1826 46.0784 39.7037 46.0784Z" fill="#6045FD"/>
<path fill-rule="evenodd" clip-rule="evenodd" d="M39.7035 62.6862C43.2246 62.6862 46.0791 59.8316 46.0791 56.3104C46.0791 52.7891 43.2246 49.9346 39.7035 49.9346C36.1823 49.9346 33.3279 52.7891 33.3279 56.3104C33.3279 59.8316 36.1823 62.6862 39.7035 62.6862Z" fill="#553FFE"/>
<path fill-rule="evenodd" clip-rule="evenodd" d="M23.6895 62.6862C27.2108 62.6862 30.0653 59.8316 30.0653 56.3104C30.0653 52.7891 27.2108 49.9346 23.6895 49.9346C20.1683 49.9346 17.3137 52.7891 17.3137 56.3104C17.3137 59.8316 20.1683 62.6862 23.6895 62.6862Z" fill="#4A3AFF"/>
</svg>
