<svg width="220" height="46" viewBox="0 0 220 46" fill="none" xmlns="http://www.w3.org/2000/svg">
<path d="M217.835 22.0595L212.638 22.3793C212.549 21.9351 212.358 21.5354 212.065 21.1801C211.772 20.8159 211.386 20.5272 210.906 20.314C210.435 20.0919 209.871 19.9809 209.214 19.9809C208.335 19.9809 207.593 20.1674 206.989 20.5405C206.385 20.9047 206.083 21.3933 206.083 22.0062C206.083 22.4947 206.278 22.9078 206.669 23.2453C207.06 23.5829 207.731 23.8538 208.681 24.0581L212.385 24.8042C214.375 25.2128 215.858 25.8702 216.835 26.7762C217.812 27.6823 218.301 28.8725 218.301 30.3471C218.301 31.6884 217.906 32.8653 217.115 33.878C216.333 34.8906 215.259 35.6812 213.891 36.2497C212.532 36.8093 210.964 37.0891 209.187 37.0891C206.478 37.0891 204.32 36.525 202.712 35.3969C201.113 34.2599 200.176 32.7143 199.9 30.7601L205.483 30.467C205.652 31.2931 206.061 31.9238 206.709 32.359C207.357 32.7854 208.188 32.9986 209.201 32.9986C210.196 32.9986 210.995 32.8076 211.599 32.4256C212.212 32.0348 212.523 31.5329 212.532 30.92C212.523 30.4048 212.305 29.9829 211.879 29.6542C211.452 29.3167 210.795 29.0591 209.907 28.8814L206.363 28.1752C204.364 27.7755 202.876 27.0827 201.899 26.0967C200.931 25.1107 200.447 23.8538 200.447 22.326C200.447 21.0113 200.802 19.8788 201.513 18.9283C202.232 17.9779 203.24 17.245 204.537 16.7298C205.843 16.2146 207.371 15.957 209.121 15.957C211.706 15.957 213.74 16.5033 215.223 17.5959C216.715 18.6885 217.586 20.1763 217.835 22.0595Z" fill="#9F9F9F"/>
<path d="M196.764 22.0595L191.568 22.3793C191.479 21.9351 191.288 21.5354 190.995 21.1801C190.702 20.8159 190.315 20.5272 189.836 20.314C189.365 20.0919 188.801 19.9809 188.144 19.9809C187.264 19.9809 186.523 20.1674 185.919 20.5405C185.314 20.9047 185.012 21.3933 185.012 22.0062C185.012 22.4947 185.208 22.9078 185.599 23.2453C185.99 23.5829 186.66 23.8538 187.611 24.0581L191.315 24.8042C193.305 25.2128 194.788 25.8702 195.765 26.7762C196.742 27.6823 197.231 28.8725 197.231 30.3471C197.231 31.6884 196.835 32.8653 196.045 33.878C195.263 34.8906 194.188 35.6812 192.82 36.2497C191.461 36.8093 189.894 37.0891 188.117 37.0891C185.408 37.0891 183.249 36.525 181.641 35.3969C180.043 34.2599 179.105 32.7143 178.83 30.7601L184.413 30.467C184.582 31.2931 184.99 31.9238 185.639 32.359C186.287 32.7854 187.118 32.9986 188.13 32.9986C189.125 32.9986 189.925 32.8076 190.529 32.4256C191.142 32.0348 191.452 31.5329 191.461 30.92C191.452 30.4048 191.235 29.9829 190.808 29.6542C190.382 29.3167 189.725 29.0591 188.836 28.8814L185.292 28.1752C183.294 27.7755 181.806 27.0827 180.829 26.0967C179.86 25.1107 179.376 23.8538 179.376 22.326C179.376 21.0113 179.732 19.8788 180.442 18.9283C181.162 17.9779 182.17 17.245 183.467 16.7298C184.773 16.2146 186.3 15.957 188.05 15.957C190.635 15.957 192.669 16.5033 194.153 17.5959C195.645 18.6885 196.516 20.1763 196.764 22.0595Z" fill="#9F9F9F"/>
<path d="M166.639 37.0891C164.534 37.0891 162.722 36.6627 161.203 35.81C159.693 34.9483 158.529 33.7314 157.712 32.1592C156.895 30.578 156.486 28.7082 156.486 26.5497C156.486 24.4445 156.895 22.5969 157.712 21.0069C158.529 19.4169 159.68 18.1777 161.163 17.2894C162.655 16.4012 164.405 15.957 166.413 15.957C167.763 15.957 169.02 16.1747 170.184 16.6099C171.356 17.0363 172.378 17.6803 173.248 18.5419C174.127 19.4035 174.811 20.4872 175.3 21.793C175.789 23.0899 176.033 24.6088 176.033 26.3498V27.9088H158.751V24.3912H170.69C170.69 23.574 170.512 22.85 170.157 22.2194C169.802 21.5887 169.309 21.0957 168.678 20.7404C168.056 20.3762 167.332 20.1941 166.506 20.1941C165.644 20.1941 164.881 20.394 164.214 20.7937C163.557 21.1845 163.042 21.713 162.669 22.3793C162.296 23.0366 162.105 23.7694 162.096 24.5777V27.9221C162.096 28.9347 162.282 29.8097 162.655 30.5469C163.037 31.2842 163.575 31.8527 164.268 32.2524C164.96 32.6521 165.782 32.852 166.733 32.852C167.363 32.852 167.941 32.7632 168.465 32.5855C168.989 32.4079 169.437 32.1414 169.81 31.7861C170.184 31.4308 170.468 30.9955 170.663 30.4803L175.913 30.8267C175.646 32.0881 175.1 33.1896 174.274 34.1311C173.457 35.0638 172.4 35.7922 171.103 36.3163C169.815 36.8315 168.327 37.0891 166.639 37.0891Z" fill="#9F9F9F"/>
<path d="M139.647 24.8575V36.6894H133.971V16.2235H139.38V19.8343H139.62C140.073 18.6441 140.833 17.7025 141.899 17.0096C142.964 16.3079 144.257 15.957 145.776 15.957C147.197 15.957 148.436 16.2679 149.493 16.8897C150.55 17.5115 151.372 18.3998 151.958 19.5545C152.545 20.7004 152.838 22.0684 152.838 23.6584V36.6894H147.162V24.671C147.17 23.4185 146.851 22.4414 146.202 21.7397C145.554 21.0291 144.661 20.6738 143.524 20.6738C142.76 20.6738 142.085 20.8381 141.499 21.1668C140.921 21.4954 140.468 21.9751 140.14 22.6058C139.82 23.2276 139.656 23.9781 139.647 24.8575Z" fill="#9F9F9F"/>
<path d="M123.748 36.6895V16.2236H129.424V36.6895H123.748ZM126.6 13.5855C125.756 13.5855 125.032 13.3057 124.428 12.746C123.833 12.1776 123.535 11.498 123.535 10.7075C123.535 9.92578 123.833 9.25513 124.428 8.69552C125.032 8.12702 125.756 7.84277 126.6 7.84277C127.444 7.84277 128.163 8.12702 128.758 8.69552C129.362 9.25513 129.664 9.92578 129.664 10.7075C129.664 11.498 129.362 12.1776 128.758 12.746C128.163 13.3057 127.444 13.5855 126.6 13.5855Z" fill="#9F9F9F"/>
<path d="M119.708 22.0595L114.511 22.3793C114.422 21.9351 114.231 21.5354 113.938 21.1801C113.645 20.8159 113.259 20.5272 112.779 20.314C112.308 20.0919 111.744 19.9809 111.087 19.9809C110.208 19.9809 109.466 20.1674 108.862 20.5405C108.258 20.9047 107.956 21.3933 107.956 22.0062C107.956 22.4947 108.151 22.9078 108.542 23.2453C108.933 23.5829 109.604 23.8538 110.554 24.0581L114.258 24.8042C116.248 25.2128 117.731 25.8702 118.708 26.7762C119.685 27.6823 120.174 28.8725 120.174 30.3471C120.174 31.6884 119.779 32.8653 118.988 33.878C118.207 34.8906 117.132 35.6812 115.764 36.2497C114.405 36.8093 112.837 37.0891 111.06 37.0891C108.351 37.0891 106.193 36.525 104.585 35.3969C102.986 34.2599 102.049 32.7143 101.773 30.7601L107.356 30.467C107.525 31.2931 107.934 31.9238 108.582 32.359C109.23 32.7854 110.061 32.9986 111.074 32.9986C112.069 32.9986 112.868 32.8076 113.472 32.4256C114.085 32.0348 114.396 31.5329 114.405 30.92C114.396 30.4048 114.178 29.9829 113.752 29.6542C113.325 29.3167 112.668 29.0591 111.78 28.8814L108.236 28.1752C106.237 27.7755 104.749 27.0827 103.772 26.0967C102.804 25.1107 102.32 23.8538 102.32 22.326C102.32 21.0113 102.675 19.8788 103.386 18.9283C104.105 17.9779 105.113 17.245 106.41 16.7298C107.716 16.2146 109.244 15.957 110.994 15.957C113.579 15.957 115.613 16.5033 117.096 17.5959C118.588 18.6885 119.459 20.1763 119.708 22.0595Z" fill="#9F9F9F"/>
<path d="M92.4641 27.9755V16.2236H98.1402V36.6895H92.6906V32.972H92.4774C92.0155 34.1712 91.2472 35.135 90.1723 35.8634C89.1064 36.5918 87.8051 36.956 86.2684 36.956C84.9004 36.956 83.6968 36.6451 82.6575 36.0233C81.6183 35.4015 80.8055 34.5176 80.2192 33.3718C79.6419 32.2259 79.3487 30.8535 79.3398 29.2546V16.2236H85.0159V28.242C85.0248 29.45 85.349 30.4049 85.9886 31.1067C86.6281 31.8084 87.4853 32.1593 88.5601 32.1593C89.2441 32.1593 89.8837 32.0038 90.4788 31.6929C91.0739 31.3732 91.5536 30.9024 91.9178 30.2806C92.2909 29.6588 92.473 28.8904 92.4641 27.9755Z" fill="#9F9F9F"/>
<path d="M55.5918 36.6901V9.40234H61.2679V19.6619H61.4411C61.6898 19.1112 62.0496 18.5516 62.5203 17.9831C63 17.4057 63.6218 16.926 64.3857 16.5441C65.1585 16.1532 66.1178 15.9578 67.2637 15.9578C68.756 15.9578 70.1328 16.3486 71.3942 17.1303C72.6555 17.9031 73.6637 19.0712 74.4188 20.6346C75.1738 22.1891 75.5513 24.1388 75.5513 26.4839C75.5513 28.7667 75.1827 30.6943 74.4454 32.2665C73.717 33.8299 72.7222 35.0157 71.4608 35.8241C70.2084 36.6235 68.8049 37.0232 67.2504 37.0232C66.1489 37.0232 65.2118 36.8411 64.439 36.4769C63.6751 36.1128 63.0489 35.6553 62.5603 35.1046C62.0718 34.5449 61.6987 33.9809 61.4411 33.4124H61.1879V36.6901H55.5918ZM61.148 26.4572C61.148 27.6741 61.3167 28.7356 61.6543 29.6417C61.9918 30.5477 62.4804 31.2539 63.1199 31.7602C63.7595 32.2576 64.5367 32.5064 65.4516 32.5064C66.3754 32.5064 67.1571 32.2532 67.7967 31.7469C68.4362 31.2317 68.9204 30.5211 69.249 29.615C69.5866 28.7001 69.7553 27.6475 69.7553 26.4572C69.7553 25.2758 69.591 24.2365 69.2623 23.3394C68.9337 22.4422 68.4496 21.7405 67.81 21.2342C67.1705 20.7278 66.3843 20.4747 65.4516 20.4747C64.5278 20.4747 63.7462 20.719 63.1066 21.2075C62.4759 21.6961 61.9918 22.3889 61.6543 23.2861C61.3167 24.1832 61.148 25.2403 61.148 26.4572Z" fill="#9F9F9F"/>
<path fill-rule="evenodd" clip-rule="evenodd" d="M23.1791 17.2179L29.319 23.3578L23.4728 29.204L17.3329 23.064L23.1791 17.2179ZM16.8839 10.9227L13.0343 7.07315C12.8148 6.85357 12.8148 6.49756 13.0343 6.27798L18.5344 0.777967C18.7539 0.558386 19.11 0.558386 19.3295 0.777967L38.1323 19.5807C40.2183 21.6667 40.2183 25.0489 38.1323 27.1349L29.768 35.4992L33.6175 39.3487C33.8371 39.5683 33.8371 39.9243 33.6175 40.1439L28.1175 45.6439C27.8979 45.8635 27.5419 45.8635 27.3223 45.6439L8.51961 26.8411C6.43357 24.7551 6.43357 21.373 8.51961 19.2869L16.8839 10.9227Z" fill="#9F9F9F"/>
</svg>
