<svg width="1440" height="816" viewBox="0 0 1440 816" fill="none" xmlns="http://www.w3.org/2000/svg">
<g opacity="0.2">
<rect width="155.2" height="155.2" transform="matrix(0.866025 0.5 -0.866025 0.5 -86.4395 1)" stroke="#9F9F9F" stroke-linejoin="round"/>
<rect width="155.2" height="155.2" transform="matrix(0.866025 -0.5 2.20305e-08 1 -86.4395 156.202)" stroke="#9F9F9F" stroke-linejoin="round"/>
<rect width="155.2" height="155.2" transform="matrix(0.866025 0.5 -0.866025 0.5 -86.4395 311.4)" stroke="#9F9F9F" stroke-linejoin="round"/>
<rect width="155.2" height="155.2" transform="matrix(0.866025 -0.5 2.20305e-08 1 -86.4395 466.6)" stroke="#9F9F9F" stroke-linejoin="round"/>
<rect width="155.2" height="155.2" transform="matrix(0.866025 0.5 -0.866025 0.5 -86.4395 621.798)" stroke="#9F9F9F" stroke-linejoin="round"/>
<rect width="155.2" height="155.2" transform="matrix(0.866025 -0.5 2.20305e-08 1 -86.4395 776.997)" stroke="#9F9F9F" stroke-linejoin="round"/>
<rect width="155.2" height="155.2" transform="matrix(0.866025 0.5 -2.20305e-08 1 47.9697 78.5991)" stroke="#9F9F9F" stroke-linejoin="round"/>
<rect width="155.2" height="155.2" transform="matrix(0.866025 0.5 -0.866025 0.5 182.376 1)" stroke="#9F9F9F" stroke-linejoin="round"/>
<rect width="155.2" height="155.2" transform="matrix(0.866025 -0.5 2.20305e-08 1 182.376 156.201)" stroke="#9F9F9F" stroke-linejoin="round"/>
<rect width="155.2" height="155.2" transform="matrix(0.866025 0.5 -2.20305e-08 1 47.9697 388.999)" stroke="#9F9F9F" stroke-linejoin="round"/>
<rect width="155.2" height="155.2" transform="matrix(0.866025 0.5 -0.866025 0.5 182.376 311.4)" stroke="#9F9F9F" stroke-linejoin="round"/>
<rect width="155.2" height="155.2" transform="matrix(0.866025 -0.5 2.20305e-08 1 182.376 466.6)" stroke="#9F9F9F" stroke-linejoin="round"/>
<rect width="155.2" height="155.2" transform="matrix(0.866025 0.5 -2.20305e-08 1 47.9697 699.397)" stroke="#9F9F9F" stroke-linejoin="round"/>
<rect width="155.2" height="155.2" transform="matrix(0.866025 0.5 -0.866025 0.5 182.376 621.798)" stroke="#9F9F9F" stroke-linejoin="round"/>
<rect width="155.2" height="155.2" transform="matrix(0.866025 -0.5 2.20305e-08 1 182.376 776.997)" stroke="#9F9F9F" stroke-linejoin="round"/>
<rect width="155.2" height="155.2" transform="matrix(0.866025 0.5 -2.20305e-08 1 316.783 78.5991)" stroke="#9F9F9F" stroke-linejoin="round"/>
<rect width="155.2" height="155.2" transform="matrix(0.866025 0.5 -0.866025 0.5 451.189 1)" stroke="#9F9F9F" stroke-linejoin="round"/>
<rect width="155.2" height="155.2" transform="matrix(0.866025 -0.5 2.20305e-08 1 451.189 156.201)" stroke="#9F9F9F" stroke-linejoin="round"/>
<rect width="155.2" height="155.2" transform="matrix(0.866025 0.5 -2.20305e-08 1 316.783 388.999)" stroke="#9F9F9F" stroke-linejoin="round"/>
<rect width="155.2" height="155.2" transform="matrix(0.866025 0.5 -0.866025 0.5 451.189 311.4)" stroke="#9F9F9F" stroke-linejoin="round"/>
<rect width="155.2" height="155.2" transform="matrix(0.866025 -0.5 2.20305e-08 1 451.189 466.6)" stroke="#9F9F9F" stroke-linejoin="round"/>
<rect width="155.2" height="155.2" transform="matrix(0.866025 0.5 -2.20305e-08 1 316.783 699.397)" stroke="#9F9F9F" stroke-linejoin="round"/>
<rect width="155.2" height="155.2" transform="matrix(0.866025 0.5 -0.866025 0.5 451.189 621.798)" stroke="#9F9F9F" stroke-linejoin="round"/>
<rect width="155.2" height="155.2" transform="matrix(0.866025 -0.5 2.20305e-08 1 451.189 776.997)" stroke="#9F9F9F" stroke-linejoin="round"/>
<rect width="155.2" height="155.2" transform="matrix(0.866025 0.5 -2.20305e-08 1 585.598 78.5991)" stroke="#9F9F9F" stroke-linejoin="round"/>
<rect width="155.2" height="155.2" transform="matrix(0.866025 0.5 -0.866025 0.5 720.003 1)" stroke="#9F9F9F" stroke-linejoin="round"/>
<rect width="155.2" height="155.2" transform="matrix(0.866025 -0.5 2.20305e-08 1 720.003 156.201)" stroke="#9F9F9F" stroke-linejoin="round"/>
<rect width="155.2" height="155.2" transform="matrix(0.866025 0.5 -2.20305e-08 1 585.598 388.999)" stroke="#9F9F9F" stroke-linejoin="round"/>
<rect width="155.2" height="155.2" transform="matrix(0.866025 0.5 -0.866025 0.5 720.003 311.4)" stroke="#9F9F9F" stroke-linejoin="round"/>
<rect width="155.2" height="155.2" transform="matrix(0.866025 -0.5 2.20305e-08 1 720.003 466.6)" stroke="#9F9F9F" stroke-linejoin="round"/>
<rect width="155.2" height="155.2" transform="matrix(0.866025 0.5 -2.20305e-08 1 585.598 699.397)" stroke="#9F9F9F" stroke-linejoin="round"/>
<rect width="155.2" height="155.2" transform="matrix(0.866025 0.5 -0.866025 0.5 720.003 621.798)" stroke="#9F9F9F" stroke-linejoin="round"/>
<rect width="155.2" height="155.2" transform="matrix(0.866025 -0.5 2.20305e-08 1 720.003 776.997)" stroke="#9F9F9F" stroke-linejoin="round"/>
<rect width="155.2" height="155.2" transform="matrix(0.866025 0.5 -2.20305e-08 1 854.408 78.5991)" stroke="#9F9F9F" stroke-linejoin="round"/>
<rect width="155.2" height="155.2" transform="matrix(0.866025 0.5 -0.866025 0.5 988.814 1)" stroke="#9F9F9F" stroke-linejoin="round"/>
<rect width="155.2" height="155.2" transform="matrix(0.866025 -0.5 2.20305e-08 1 988.814 156.201)" stroke="#9F9F9F" stroke-linejoin="round"/>
<rect width="155.2" height="155.2" transform="matrix(0.866025 0.5 -2.20305e-08 1 854.408 388.999)" stroke="#9F9F9F" stroke-linejoin="round"/>
<rect width="155.2" height="155.2" transform="matrix(0.866025 0.5 -0.866025 0.5 988.814 311.4)" stroke="#9F9F9F" stroke-linejoin="round"/>
<rect width="155.2" height="155.2" transform="matrix(0.866025 -0.5 2.20305e-08 1 988.814 466.6)" stroke="#9F9F9F" stroke-linejoin="round"/>
<rect width="155.2" height="155.2" transform="matrix(0.866025 0.5 -2.20305e-08 1 1123.22 78.5991)" stroke="#9F9F9F" stroke-linejoin="round"/>
<rect width="155.2" height="155.2" transform="matrix(0.866025 0.5 -0.866025 0.5 1257.63 1)" stroke="#9F9F9F" stroke-linejoin="round"/>
<rect width="155.2" height="155.2" transform="matrix(0.866025 -0.5 2.20305e-08 1 1257.63 156.201)" stroke="#9F9F9F" stroke-linejoin="round"/>
<rect width="155.2" height="155.2" transform="matrix(0.866025 0.5 -2.20305e-08 1 1123.22 388.999)" stroke="#9F9F9F" stroke-linejoin="round"/>
<rect width="155.2" height="155.2" transform="matrix(0.866025 0.5 -0.866025 0.5 1257.63 311.4)" stroke="#9F9F9F" stroke-linejoin="round"/>
<rect width="155.2" height="155.2" transform="matrix(0.866025 -0.5 2.20305e-08 1 1257.63 466.6)" stroke="#9F9F9F" stroke-linejoin="round"/>
<rect width="155.2" height="155.2" transform="matrix(0.866025 0.5 -2.20305e-08 1 1123.22 699.397)" stroke="#9F9F9F" stroke-linejoin="round"/>
<rect width="155.2" height="155.2" transform="matrix(0.866025 0.5 -0.866025 0.5 1257.63 621.798)" stroke="#9F9F9F" stroke-linejoin="round"/>
<rect width="155.2" height="155.2" transform="matrix(0.866025 -0.5 2.20305e-08 1 1257.63 776.997)" stroke="#9F9F9F" stroke-linejoin="round"/>
<rect width="155.2" height="155.2" transform="matrix(0.866025 0.5 -2.20305e-08 1 1392.04 78.5991)" stroke="#9F9F9F" stroke-linejoin="round"/>
<rect width="155.2" height="155.2" transform="matrix(0.866025 0.5 -0.866025 0.5 1526.44 1)" stroke="#9F9F9F" stroke-linejoin="round"/>
<rect width="155.2" height="155.2" transform="matrix(0.866025 0.5 -2.20305e-08 1 1392.04 388.999)" stroke="#9F9F9F" stroke-linejoin="round"/>
<rect width="155.2" height="155.2" transform="matrix(0.866025 0.5 -0.866025 0.5 1526.44 311.4)" stroke="#9F9F9F" stroke-linejoin="round"/>
<rect width="155.2" height="155.2" transform="matrix(0.866025 0.5 -2.20305e-08 1 1392.04 699.397)" stroke="#9F9F9F" stroke-linejoin="round"/>
<rect width="155.2" height="155.2" transform="matrix(0.866025 0.5 -0.866025 0.5 1526.44 621.798)" stroke="#9F9F9F" stroke-linejoin="round"/>
<rect width="155.2" height="155.2" transform="matrix(0.866025 0.5 -2.20305e-08 1 854.408 699.397)" stroke="#9F9F9F" stroke-linejoin="round"/>
<rect width="155.2" height="155.2" transform="matrix(0.866025 0.5 -0.866025 0.5 988.814 621.798)" stroke="#9F9F9F" stroke-linejoin="round"/>
<rect width="155.2" height="155.2" transform="matrix(0.866025 -0.5 2.20305e-08 1 988.814 776.997)" stroke="#9F9F9F" stroke-linejoin="round"/>
</g>
</svg>
