<svg width="233" height="46" viewBox="0 0 233 46" fill="none" xmlns="http://www.w3.org/2000/svg">
<path d="M224.311 15.3242H229.776L222.568 35.1268C220.509 40.83 217.142 43.3251 212.112 43.0478V38.2952C214.924 38.3348 216.35 37.1467 217.301 34.4931L209.182 15.3242H214.766L219.915 28.6316L224.311 15.3242Z" fill="#9F9F9F"/>
<path d="M199.977 14.7695C204.175 14.7695 207.462 17.7003 207.462 22.9678V35.1266H202.353V23.6015C202.353 20.9083 200.73 19.5222 198.432 19.5222C195.937 19.5222 194.076 20.9875 194.076 24.4332V35.1266H188.967V15.324H194.076V17.5419C195.264 15.7597 197.323 14.7695 199.977 14.7695Z" fill="#9F9F9F"/>
<path d="M179.224 15.324H184.333V35.1266H179.224V32.7899C177.798 34.5721 175.66 35.6811 172.769 35.6811C167.501 35.6811 163.145 31.1265 163.145 25.2253C163.145 19.3241 167.501 14.7695 172.769 14.7695C175.66 14.7695 177.798 15.8785 179.224 17.6607V15.324ZM173.719 30.8096C176.888 30.8096 179.224 28.5521 179.224 25.2253C179.224 21.8985 176.888 19.641 173.719 19.641C170.59 19.641 168.254 21.8985 168.254 25.2253C168.254 28.5521 170.59 30.8096 173.719 30.8096Z" fill="#9F9F9F"/>
<path d="M150.908 14.7695C156.215 14.7695 160.572 19.3241 160.572 25.2253C160.572 31.1265 156.215 35.6811 150.908 35.6811C148.017 35.6811 145.918 34.6117 144.492 32.7899V43.0476H139.383V15.324H144.492V17.6607C145.918 15.8389 148.017 14.7695 150.908 14.7695ZM149.957 30.8096C153.126 30.8096 155.463 28.5521 155.463 25.2253C155.463 21.8985 153.126 19.641 149.957 19.641C146.829 19.641 144.492 21.8985 144.492 25.2253C144.492 28.5521 146.829 30.8096 149.957 30.8096Z" fill="#9F9F9F"/>
<path d="M127.558 14.7695C132.073 14.7695 135.043 17.9776 135.043 22.9282V35.1266H129.934V23.2846C129.934 20.9479 128.746 19.5222 126.607 19.5222C124.35 19.5222 122.924 21.0271 122.924 23.9975V35.1266H117.815V23.2846C117.815 20.9479 116.627 19.5222 114.488 19.5222C112.31 19.5222 110.765 21.0271 110.765 23.9975V35.1266H105.656V15.324H110.765V17.4231C111.874 15.7597 113.736 14.7695 116.27 14.7695C118.726 14.7695 120.548 15.7993 121.657 17.6211C122.885 15.8389 124.865 14.7695 127.558 14.7695Z" fill="#9F9F9F"/>
<path d="M91.5671 35.6811C85.7451 35.6811 81.1113 31.1265 81.1113 25.2253C81.1113 19.3241 85.7451 14.7695 91.5671 14.7695C97.3891 14.7695 102.062 19.3241 102.062 25.2253C102.062 31.1265 97.3891 35.6811 91.5671 35.6811ZM91.5671 30.6908C94.6167 30.6908 96.9534 28.4333 96.9534 25.2253C96.9534 22.0173 94.6167 19.7598 91.5671 19.7598C88.5571 19.7598 86.2204 22.0173 86.2204 25.2253C86.2204 28.4333 88.5571 30.6908 91.5671 30.6908Z" fill="#9F9F9F"/>
<path d="M70.7976 35.6811C64.7776 35.6811 60.3418 31.1265 60.3418 25.2253C60.3418 19.3241 64.7776 14.7695 70.7976 14.7695C74.6789 14.7695 78.0453 16.829 79.6691 19.8786L75.273 22.4529C74.4809 20.8291 72.7778 19.7994 70.758 19.7994C67.7084 19.7994 65.4509 22.0569 65.4509 25.2253C65.4509 28.3541 67.7084 30.6116 70.758 30.6116C72.8174 30.6116 74.5205 29.6215 75.3126 27.9977L79.7483 30.5324C78.0453 33.6216 74.6789 35.6811 70.7976 35.6811Z" fill="#9F9F9F"/>
<path fill-rule="evenodd" clip-rule="evenodd" d="M16.7395 3.87402C15.0307 3.87402 13.6454 5.25929 13.6454 6.9681V16.6323H3.80306C2.09425 16.6323 0.708984 18.0176 0.708984 19.7264V42.5391C0.708984 44.2479 2.09425 45.6332 3.80306 45.6332H26.3447C28.0535 45.6332 29.4388 44.2479 29.4388 42.5391V32.8749H39.2811C40.9899 32.8749 42.3752 31.4896 42.3752 29.7808V6.9681C42.3752 5.25929 40.9899 3.87402 39.2811 3.87402H16.7395ZM29.4388 32.8749V19.7264C29.4388 18.0176 28.0535 16.6323 26.3447 16.6323H13.6454V29.7808C13.6454 31.4896 15.0307 32.8749 16.7395 32.8749H29.4388Z" fill="#9F9F9F"/>
</svg>
