<svg width="227" height="45" viewBox="0 0 227 45" fill="none" xmlns="http://www.w3.org/2000/svg">
<path d="M211.954 23.3167H220.208C220.133 21.4782 218.932 19.6772 216.081 19.6772C213.492 19.6772 212.066 21.6283 211.954 23.3167ZM220.696 28.1194L224.861 29.3576C223.923 32.5468 220.996 35.2108 216.456 35.2108C211.391 35.2108 206.926 31.5713 206.926 25.3429C206.926 19.4521 211.278 15.625 216.006 15.625C221.709 15.625 225.123 19.2645 225.123 25.1928C225.123 25.9057 225.048 26.6561 225.048 26.7311H211.841C211.954 29.17 214.017 30.9334 216.494 30.9334C218.82 30.9334 220.096 29.7703 220.696 28.1194Z" fill="#9F9F9F"/>
<path d="M190.268 29.5077L194.545 28.5696C194.657 30.033 195.746 31.3837 197.922 31.3837C199.573 31.3837 200.361 30.5207 200.361 29.5452C200.361 28.7197 199.798 28.0444 198.372 27.7442L195.933 27.1814C192.369 26.3934 190.755 24.2548 190.755 21.6658C190.755 18.364 193.682 15.625 197.659 15.625C202.912 15.625 204.676 18.9643 204.901 20.9529L200.736 21.891C200.586 20.8029 199.798 19.4146 197.697 19.4146C196.383 19.4146 195.333 20.2025 195.333 21.2531C195.333 22.1536 196.008 22.7164 197.021 22.904L199.648 23.4668C203.287 24.2172 205.126 26.431 205.126 29.1325C205.126 32.1341 202.799 35.2108 197.959 35.2108C192.406 35.2108 190.493 31.6088 190.268 29.5077Z" fill="#9F9F9F"/>
<path d="M187.251 34.6475H182.26V16.1873H187.251V34.6475ZM181.66 10.1464C181.66 8.42049 183.048 7.03223 184.737 7.03223C186.463 7.03223 187.814 8.42049 187.814 10.1464C187.814 11.7974 186.463 13.1856 184.737 13.1856C183.048 13.1856 181.66 11.7974 181.66 10.1464Z" fill="#9F9F9F"/>
<path d="M179.5 16.1122V21.1399C178.938 21.0274 178.45 20.9898 178 20.9898C175.448 20.9898 173.234 22.228 173.234 26.2052V34.6474H168.244V16.1872H173.084V18.9262C174.21 16.4874 176.761 16.0371 178.337 16.0371C178.75 16.0371 179.125 16.0746 179.5 16.1122Z" fill="#9F9F9F"/>
<path d="M151.012 41.7763H146.021V16.1871H150.862V18.4384C151.687 17.0126 153.751 15.7744 156.527 15.7744C161.93 15.7744 165.044 19.9017 165.044 25.3797C165.044 30.9703 161.555 35.0976 156.34 35.0976C153.788 35.0976 151.912 34.0845 151.012 32.8463V41.7763ZM160.129 25.4172C160.129 22.1529 158.103 20.2394 155.552 20.2394C153 20.2394 150.937 22.1529 150.937 25.4172C150.937 28.6815 153 30.6326 155.552 30.6326C158.103 30.6326 160.129 28.7191 160.129 25.4172Z" fill="#9F9F9F"/>
<path d="M143.26 16.1122V21.1399C142.697 21.0274 142.21 20.9898 141.759 20.9898C139.208 20.9898 136.994 22.228 136.994 26.2052V34.6474H132.004V16.1872H136.844V18.9262C137.97 16.4874 140.521 16.0371 142.097 16.0371C142.51 16.0371 142.885 16.0746 143.26 16.1122Z" fill="#9F9F9F"/>
<path d="M115.655 23.3167H123.909C123.834 21.4782 122.634 19.6772 119.782 19.6772C117.193 19.6772 115.767 21.6283 115.655 23.3167ZM124.397 28.1194L128.562 29.3576C127.624 32.5468 124.697 35.2108 120.157 35.2108C115.092 35.2108 110.627 31.5713 110.627 25.3429C110.627 19.4521 114.979 15.625 119.707 15.625C125.41 15.625 128.824 19.2645 128.824 25.1928C128.824 25.9057 128.749 26.6561 128.749 26.7311H115.542C115.655 29.17 117.718 30.9334 120.195 30.9334C122.521 30.9334 123.797 29.7703 124.397 28.1194Z" fill="#9F9F9F"/>
<path d="M104.995 10.6719V16.1874H108.71V20.6149H104.995V28.3441C104.995 29.9575 105.746 30.4828 107.171 30.4828C107.772 30.4828 108.447 30.4078 108.71 30.3327V34.46C108.26 34.6476 107.359 34.9103 105.896 34.9103C102.294 34.9103 100.042 32.7716 100.042 29.2071V20.6149H96.7031V16.1874H97.6411C99.5922 16.1874 100.493 14.9117 100.493 13.2608V10.6719H104.995Z" fill="#9F9F9F"/>
<path d="M82.6719 24.0298V34.6482H77.6816V16.188H82.5218V18.4767C83.6474 16.5632 85.8612 15.7002 87.8498 15.7002C92.4273 15.7002 94.5284 18.9645 94.5284 23.0167V34.6482H89.5382V23.8797C89.5382 21.8161 88.5251 20.2027 86.1238 20.2027C83.9476 20.2027 82.6719 21.8911 82.6719 24.0298Z" fill="#9F9F9F"/>
<path d="M61.3325 23.3167H69.587C69.512 21.4782 68.3113 19.6772 65.4597 19.6772C62.8708 19.6772 61.445 21.6283 61.3325 23.3167ZM70.0748 28.1194L74.2396 29.3576C73.3016 32.5468 70.375 35.2108 65.8349 35.2108C60.7697 35.2108 56.3047 31.5713 56.3047 25.3429C56.3047 19.4521 60.6571 15.625 65.3847 15.625C71.0878 15.625 74.5022 19.2645 74.5022 25.1928C74.5022 25.9057 74.4272 26.6561 74.4272 26.7311H61.2199C61.3325 29.17 63.3961 30.9334 65.8725 30.9334C68.1988 30.9334 69.4745 29.7703 70.0748 28.1194Z" fill="#9F9F9F"/>
<g clip-path="url(#clip0_4523_6415)">
<path fill-rule="evenodd" clip-rule="evenodd" d="M0.988691 30.7606C0.988691 31.787 2.02828 32.4866 2.97912 32.1001L15.6845 26.9353C16.2295 26.7138 16.5859 26.1842 16.5859 25.5959L16.5859 19.7638C16.5859 19.1755 16.9423 18.6459 17.4873 18.4243L30.2392 13.2406C30.7842 13.0191 31.1406 12.4895 31.1406 11.9012L31.1406 5.06327C31.1406 4.2647 30.4933 3.61734 29.6947 3.61734L16.9894 3.61734C16.1908 3.61734 15.5434 4.2647 15.5434 5.06326L15.5434 15.8661C15.5434 16.6647 14.8961 17.312 14.0975 17.312L2.43461 17.312C1.63605 17.312 0.988692 17.9594 0.988692 18.758L0.988691 30.7606Z" fill="#9F9F9F"/>
<path fill-rule="evenodd" clip-rule="evenodd" d="M42.1734 13.5128C42.1734 12.4864 41.1338 11.7868 40.183 12.1733L27.4776 17.3381C26.9327 17.5596 26.5762 18.0893 26.5762 18.6776V24.5096C26.5762 25.0979 26.2198 25.6276 25.6748 25.8491L12.9229 31.0328C12.3779 31.2543 12.0215 31.784 12.0215 32.3723V39.2102C12.0215 40.0087 12.6688 40.6561 13.4674 40.6561H26.1728C26.9713 40.6561 27.6187 40.0087 27.6187 39.2102V28.4073C27.6187 27.6088 28.266 26.9614 29.0646 26.9614H40.7275C41.5261 26.9614 42.1734 26.314 42.1734 25.5155V13.5128Z" fill="#9F9F9F"/>
</g>
<defs>
<clipPath id="clip0_4523_6415">
<rect width="42.7319" height="42.7319" fill="white" transform="translate(0.212891 1.93066)"/>
</clipPath>
</defs>
</svg>
