<svg width="32" height="32" viewBox="0 0 32 32" fill="none" xmlns="http://www.w3.org/2000/svg">
<path d="M11.6113 28H20.8339" stroke="#235CF2" stroke-width="1.5" stroke-linecap="round" stroke-linejoin="round"/>
<path d="M10.5393 20.5007C9.44131 19.6464 8.55205 18.5531 7.93887 17.3038C7.32568 16.0545 7.00465 14.6819 7.0001 13.29C6.97704 8.28288 11.0004 4.11797 16.0037 4.00259C17.94 3.95666 19.8417 4.522 21.4389 5.61845C23.0362 6.7149 24.248 8.28679 24.9024 10.1112C25.5569 11.9356 25.6207 13.9199 25.085 15.7827C24.5492 17.6454 23.4411 19.2921 21.9176 20.4892C21.5811 20.7495 21.3085 21.0834 21.1207 21.4653C20.9329 21.8473 20.8348 22.2671 20.834 22.6928V23.385C20.834 23.6298 20.7368 23.8646 20.5639 24.0377C20.3909 24.2108 20.1563 24.308 19.9117 24.308H12.5337C12.2891 24.308 12.0545 24.2108 11.8815 24.0377C11.7086 23.8646 11.6114 23.6298 11.6114 23.385V22.6928C11.6085 22.2703 11.5106 21.8539 11.325 21.4744C11.1394 21.095 10.8709 20.7622 10.5393 20.5007V20.5007Z" stroke="#235CF2" stroke-width="1.5" stroke-linecap="round" stroke-linejoin="round"/>
</svg>
