<svg width="206" height="46" viewBox="0 0 206 46" fill="none" xmlns="http://www.w3.org/2000/svg">
<path d="M194.016 14.1445C199.456 14.1445 203.021 17.9341 203.021 22.9994C203.021 23.8624 202.87 24.6503 202.72 25.3632H189.288C189.588 28.3649 192.102 29.9407 194.916 29.9407C197.13 29.9407 198.781 29.0027 199.944 27.8021L202.645 31.0288C200.282 33.2801 197.843 34.1806 194.691 34.1806C188.387 34.1806 184.223 29.7907 184.223 24.2001C184.223 18.6095 188.312 14.1445 194.016 14.1445ZM193.978 18.2343C191.577 18.2343 189.701 19.6601 189.288 22.0614H198.255V22.0239C198.068 19.6601 196.267 18.2343 193.978 18.2343Z" fill="#9F9F9F"/>
<path d="M169.918 14.5953H172.77V9.37988H177.497V14.5953H182.037V18.4974H177.497V27.0146C177.497 28.8531 178.398 29.7911 180.161 29.7911C180.724 29.7911 181.662 29.7161 182.525 29.1533V33.4307C181.662 33.8809 180.499 34.1811 178.885 34.1811C174.983 34.1811 172.619 31.8923 172.619 27.7275V18.4974H169.918V14.5953Z" fill="#9F9F9F"/>
<path d="M148.377 14.5947H153.255V25.6258C153.255 28.3648 154.868 29.8281 157.119 29.8281C160.158 29.8281 161.509 27.0516 161.509 24.4627V14.5947H166.387V33.7303H161.697V31.1038C160.496 33.0924 158.62 34.1805 155.806 34.1805C151.304 34.1805 148.377 31.2539 148.377 26.1886V14.5947Z" fill="#9F9F9F"/>
<path d="M132.801 14.5953H135.652V9.37988H140.38V14.5953H144.92V18.4974H140.38V27.0146C140.38 28.8531 141.28 29.7911 143.044 29.7911C143.607 29.7911 144.545 29.7161 145.408 29.1533V33.4307C144.545 33.8809 143.382 34.1811 141.768 34.1811C137.866 34.1811 135.502 31.8923 135.502 27.7275V18.4974H132.801V14.5953Z" fill="#9F9F9F"/>
<path d="M124.383 33.7304V14.5948H129.261V33.7304H124.383ZM126.785 6.30273C128.323 6.30273 129.599 7.42835 129.599 9.04174C129.599 10.6551 128.323 11.8183 126.785 11.8183C125.171 11.8183 123.971 10.6551 123.971 9.04174C123.971 7.42835 125.171 6.30273 126.785 6.30273Z" fill="#9F9F9F"/>
<path d="M108.361 14.5953H111.213V9.37988H115.941V14.5953H120.481V18.4974H115.941V27.0146C115.941 28.8531 116.841 29.7911 118.604 29.7911C119.167 29.7911 120.105 29.7161 120.968 29.1533V33.4307C120.105 33.8809 118.942 34.1811 117.329 34.1811C113.427 34.1811 111.063 31.8923 111.063 27.7275V18.4974H108.361V14.5953Z" fill="#9F9F9F"/>
<path d="M98.8403 34.1806C95.3884 34.1806 92.4242 32.5672 90.9609 29.8657L94.2628 27.4269C95.3133 29.0778 96.7766 30.2409 98.8403 30.2409C100.641 30.2409 101.729 29.6031 101.729 28.59C101.729 27.3893 100.716 26.9016 97.6021 25.851C93.7 24.5378 91.5988 22.9994 91.5988 19.8477C91.5988 16.5459 94.8256 14.1445 98.9528 14.1445C102.105 14.1445 104.694 15.6454 105.932 17.9341L102.667 20.2979C101.879 18.9847 100.679 18.0467 98.8778 18.0467C97.3395 18.0467 96.1763 18.7596 96.1763 19.8102C96.1763 20.8232 97.1894 21.3485 100.154 22.3991C103.793 23.7123 106.307 24.988 106.307 28.4774C106.307 31.7042 103.268 34.1806 98.8403 34.1806Z" fill="#9F9F9F"/>
<path d="M69.459 14.5948H74.1491V17.2212C75.3497 15.2326 77.2258 14.1445 80.0398 14.1445C84.5423 14.1445 87.4689 17.0711 87.4689 22.1364V33.7303H82.5912V22.6993C82.5912 19.9602 80.9778 18.4969 78.7266 18.4969C75.6874 18.4969 74.3367 21.2359 74.3367 23.8624V33.7303H69.459V14.5948Z" fill="#9F9F9F"/>
<path d="M59.0162 33.7304V14.5948H63.8939V33.7304H59.0162ZM61.4176 6.30273C62.9559 6.30273 64.2316 7.42835 64.2316 9.04174C64.2316 10.6551 62.9559 11.8183 61.4176 11.8183C59.8042 11.8183 58.6035 10.6551 58.6035 9.04174C58.6035 7.42835 59.8042 6.30273 61.4176 6.30273Z" fill="#9F9F9F"/>
<path fill-rule="evenodd" clip-rule="evenodd" d="M12.6503 2.82495C5.68656 6.19982 0.884766 13.3361 0.884766 21.5939C0.884766 33.1061 10.2173 42.4387 21.7296 42.4387C29.9873 42.4387 37.1235 37.637 40.4984 30.6734H21.7292V30.6729C16.7462 30.6727 12.7008 26.6582 12.6508 21.687H12.6503V21.5937V2.82495ZM42.2864 25.0672C42.4758 23.9376 42.5744 22.7772 42.5744 21.5939C42.5744 10.0816 33.2419 0.749023 21.7296 0.749023C20.5463 0.749023 19.386 0.847624 18.2565 1.03706V13.2025C19.3264 12.7592 20.4993 12.5145 21.7295 12.5145C26.7437 12.5145 30.8086 16.5794 30.8086 21.5937C30.8086 22.824 30.5639 23.9972 30.1205 25.0672H42.2864Z" fill="#9F9F9F"/>
</svg>
