<svg width="30" height="30" viewBox="0 0 30 30" fill="none" xmlns="http://www.w3.org/2000/svg">
<path d="M25.5639 20.537V9.46301C25.5631 9.30305 25.5201 9.14614 25.4392 9.00811C25.3584 8.87008 25.2426 8.75581 25.1035 8.67682L15.22 3.11737C15.0868 3.04048 14.9358 3 14.782 3C14.6282 3 14.4771 3.04048 14.344 3.11737L4.46048 8.67682C4.32138 8.75581 4.20557 8.87008 4.12473 9.00811C4.04388 9.14614 4.00086 9.30305 4 9.46301V20.537C4.00086 20.697 4.04388 20.8539 4.12473 20.9919C4.20557 21.1299 4.32138 21.2442 4.46048 21.3232L14.344 26.8826C14.4771 26.9595 14.6282 27 14.782 27C14.9358 27 15.0868 26.9595 15.22 26.8826L25.1035 21.3232C25.2426 21.2442 25.3584 21.1299 25.4392 20.9919C25.5201 20.8539 25.5631 20.697 25.5639 20.537V20.537Z" stroke="#235CF2" stroke-width="1.5" stroke-linecap="round" stroke-linejoin="round"/>
<path d="M25.4399 9.00244L14.8826 14.9999L4.12305 9.00244" stroke="#235CF2" stroke-width="1.5" stroke-linecap="round" stroke-linejoin="round"/>
<path d="M18.405 4.90332L7.84766 10.9008" stroke="#235CF2" stroke-width="1.5" stroke-linecap="round" stroke-linejoin="round"/>
<path d="M21.7175 6.75635L11.1602 12.7538" stroke="#235CF2" stroke-width="1.5" stroke-linecap="round" stroke-linejoin="round"/>
<path d="M14.8823 15L14.7812 26.9949" stroke="#235CF2" stroke-width="1.5" stroke-linecap="round" stroke-linejoin="round"/>
</svg>
