<svg width="30" height="30" viewBox="0 0 30 30" fill="none" xmlns="http://www.w3.org/2000/svg">
<path d="M15.0859 5.77153V3" stroke="#235CF2" stroke-width="1.5"/>
<path d="M26.1723 18.7056C24.4863 24.5951 16.6798 26.6506 15.294 26.974C15.1576 27.0087 15.0147 27.0087 14.8783 26.974C13.4925 26.6506 5.68602 24.5951 4 18.7056V14.7561C3.99998 14.5616 4.06137 14.372 4.17542 14.2144C4.28947 14.0568 4.45035 13.9393 4.63514 13.8785L14.7974 10.4834C14.9855 10.4255 15.1867 10.4255 15.3748 10.4834L25.5371 13.8785C25.7219 13.9393 25.8828 14.0568 25.9968 14.2144C26.1109 14.372 26.1723 14.5616 26.1723 14.7561V18.7056Z" stroke="#235CF2" stroke-width="1.5"/>
<path d="M15.0859 19.6293V10.437" stroke="#235CF2" stroke-width="1.5"/>
<path d="M6.77148 13.1622V6.69533C6.77148 6.45031 6.86882 6.21533 7.04207 6.04207C7.21533 5.86882 7.45031 5.77148 7.69533 5.77148H22.4768C22.7219 5.77148 22.9568 5.86882 23.1301 6.04207C23.3034 6.21533 23.4007 6.45031 23.4007 6.69533V13.1622" stroke="#235CF2" stroke-width="1.5"/>
</svg>
