<svg width="283" height="44" viewBox="0 0 283 44" fill="none" xmlns="http://www.w3.org/2000/svg">
<path d="M266.576 16.1776C268.177 14.2516 270.153 13.276 272.504 13.251C273.78 13.226 274.906 13.4386 275.881 13.8889C276.857 14.3141 277.645 14.9019 278.245 15.6523C278.97 16.5278 279.471 17.5534 279.746 18.729C280.021 19.8797 280.158 21.1679 280.158 22.5937V33.4371H274.831V23.0064C274.831 22.306 274.755 21.6431 274.605 21.0178C274.48 20.3674 274.255 19.8171 273.93 19.3669C273.605 18.8916 273.167 18.5414 272.617 18.3163C272.092 18.0912 271.491 17.9786 270.816 17.9786C269.965 18.0036 269.24 18.1912 268.64 18.5414C268.064 18.8916 267.627 19.3419 267.326 19.8922C267.026 20.4175 266.814 21.0178 266.689 21.6932C266.588 22.3435 266.538 23.0064 266.538 23.6818V33.4371H261.248V13.6637H266.313L266.576 16.1776Z" fill="#9F9F9F"/>
<path d="M247.834 33.7373C244.632 33.7373 242.168 32.8368 240.442 31.0358C238.717 29.2098 237.854 26.6834 237.854 23.4566C237.854 21.9058 238.079 20.505 238.529 19.2543C239.004 17.9786 239.655 16.8905 240.48 15.99C241.33 15.0895 242.369 14.4141 243.594 13.9639C244.845 13.4886 246.258 13.251 247.834 13.251C249.385 13.251 250.773 13.4886 251.999 13.9639C253.25 14.4141 254.3 15.0895 255.151 15.99C256.026 16.8905 256.689 17.9786 257.139 19.2543C257.614 20.505 257.852 21.9058 257.852 23.4566C257.852 26.7084 256.977 29.2348 255.226 31.0358C253.5 32.8368 251.036 33.7373 247.834 33.7373ZM247.834 17.9786C246.208 17.9786 245.007 18.5039 244.232 19.5545C243.457 20.605 243.069 21.9183 243.069 23.4941C243.069 25.095 243.457 26.4207 244.232 27.4713C245.007 28.5219 246.208 29.0472 247.834 29.0472C249.46 29.0472 250.648 28.5219 251.398 27.4713C252.149 26.4207 252.524 25.095 252.524 23.4941C252.524 21.9183 252.149 20.605 251.398 19.5545C250.648 18.5039 249.46 17.9786 247.834 17.9786Z" fill="#9F9F9F"/>
<path d="M231.491 4.47168C232.466 4.47168 233.254 4.75934 233.855 5.33466C234.455 5.90997 234.755 6.67289 234.755 7.62342C234.755 8.62397 234.455 9.41191 233.855 9.98722C233.254 10.5375 232.466 10.8127 231.491 10.8127C230.54 10.8127 229.752 10.5375 229.127 9.98722C228.527 9.41191 228.227 8.62397 228.227 7.62342C228.227 6.67289 228.527 5.90997 229.127 5.33466C229.752 4.75934 230.54 4.47168 231.491 4.47168ZM234.155 33.4377H228.864V13.6643H234.155V33.4377Z" fill="#9F9F9F"/>
<path d="M220.993 18.2793V26.2712C220.993 27.9722 221.856 28.8227 223.582 28.8227H225.533V33.4377H223.057C220.43 33.5378 218.542 33.0375 217.391 31.9369C216.266 30.8363 215.703 29.1728 215.703 26.9466V18.2793H212.701V13.6643H215.703V8.29883H220.993V13.6643H225.721V18.2793H220.993Z" fill="#9F9F9F"/>
<path d="M205.076 30.9983C204.325 31.9988 203.412 32.7117 202.337 33.137C201.261 33.5622 200.01 33.7623 198.585 33.7373C196.759 33.6873 195.233 33.1745 194.007 32.1989C193.357 31.6486 192.844 30.9983 192.469 30.2479C192.118 29.4724 191.943 28.5594 191.943 27.5088C191.968 26.4333 192.206 25.4827 192.656 24.6573C193.132 23.8068 193.844 23.1064 194.795 22.5561C195.595 22.1309 196.496 21.8307 197.496 21.6556C198.522 21.4805 199.635 21.393 200.836 21.393H204.888C204.963 20.1673 204.675 19.2543 204.025 18.654C203.4 18.0286 202.512 17.7034 201.361 17.6784C200.986 17.6784 200.598 17.7034 200.198 17.7535C199.798 17.8035 199.422 17.9035 199.072 18.0536C198.747 18.2037 198.459 18.4163 198.209 18.6915C197.984 18.9416 197.834 19.2543 197.759 19.6295H192.319C192.444 18.4288 192.769 17.4283 193.294 16.6278C193.844 15.8024 194.532 15.1395 195.358 14.6392C196.183 14.139 197.096 13.7888 198.097 13.5887C199.122 13.3635 200.173 13.251 201.248 13.251C201.849 13.251 202.462 13.2885 203.087 13.3635C203.712 13.4136 204.325 13.5386 204.926 13.7387C205.526 13.9138 206.089 14.164 206.614 14.4892C207.164 14.7893 207.677 15.1895 208.152 15.6898C209.003 16.6654 209.528 17.791 209.728 19.0667C209.953 20.3174 210.053 21.5431 210.028 22.7437V33.4371H205.188L205.076 30.9983ZM204.888 24.6948H201.023C200.648 24.6948 200.223 24.7323 199.748 24.8074C199.272 24.8824 198.86 25.02 198.509 25.2201C198.159 25.4202 197.859 25.6828 197.609 26.008C197.384 26.3332 197.271 26.7334 197.271 27.2087C197.271 27.6089 197.346 27.9591 197.496 28.2593C197.672 28.5594 197.884 28.8096 198.134 29.0097C198.409 29.2098 198.735 29.3724 199.11 29.4974C199.485 29.5975 199.86 29.6475 200.235 29.6475C200.961 29.6725 201.636 29.5475 202.262 29.2723C202.912 28.9972 203.475 28.6095 203.95 28.1092C204.25 27.709 204.475 27.2587 204.625 26.7584C204.8 26.2331 204.888 25.5453 204.888 24.6948Z" fill="#9F9F9F"/>
<path d="M189.249 17.4921L179.644 28.8234H189.249V33.4385H172.74V29.5738L182.27 18.2426H172.74V13.665H189.249V17.4921Z" fill="#9F9F9F"/>
<path d="M166.38 4.47168C167.355 4.47168 168.143 4.75934 168.743 5.33466C169.344 5.90997 169.644 6.67289 169.644 7.62342C169.644 8.62397 169.344 9.41191 168.743 9.98722C168.143 10.5375 167.355 10.8127 166.38 10.8127C165.429 10.8127 164.641 10.5375 164.016 9.98722C163.415 9.41191 163.115 8.62397 163.115 7.62342C163.115 6.67289 163.415 5.90997 164.016 5.33466C164.641 4.75934 165.429 4.47168 166.38 4.47168ZM169.044 33.4377H163.753V13.6643H169.044V33.4377Z" fill="#9F9F9F"/>
<path d="M145.806 16.1776C147.407 14.2516 149.383 13.276 151.735 13.251C153.01 13.226 154.136 13.4386 155.112 13.8889C156.087 14.3141 156.875 14.9019 157.475 15.6523C158.201 16.5278 158.701 17.5534 158.976 18.729C159.251 19.8797 159.389 21.1679 159.389 22.5937V33.4371H154.061V23.0064C154.061 22.306 153.986 21.6431 153.836 21.0178C153.711 20.3674 153.486 19.8171 153.161 19.3669C152.835 18.8916 152.398 18.5414 151.847 18.3163C151.322 18.0912 150.722 17.9786 150.046 17.9786C149.196 18.0036 148.47 18.1912 147.87 18.5414C147.295 18.8916 146.857 19.3419 146.557 19.8922C146.257 20.4175 146.044 21.0178 145.919 21.6932C145.819 22.3435 145.769 23.0064 145.769 23.6818V33.4371H140.479V13.6637H145.544L145.806 16.1776Z" fill="#9F9F9F"/>
<path d="M131.39 30.9983C130.64 31.9988 129.727 32.7117 128.651 33.137C127.575 33.5622 126.325 33.7623 124.899 33.7373C123.073 33.6873 121.547 33.1745 120.321 32.1989C119.671 31.6486 119.158 30.9983 118.783 30.2479C118.433 29.4724 118.258 28.5594 118.258 27.5088C118.283 26.4333 118.52 25.4827 118.971 24.6573C119.446 23.8068 120.159 23.1064 121.109 22.5561C121.91 22.1309 122.81 21.8307 123.811 21.6556C124.836 21.4805 125.95 21.393 127.15 21.393H131.202C131.277 20.1673 130.99 19.2543 130.339 18.654C129.714 18.0286 128.826 17.7034 127.676 17.6784C127.3 17.6784 126.913 17.7034 126.512 17.7535C126.112 17.8035 125.737 17.9035 125.387 18.0536C125.062 18.2037 124.774 18.4163 124.524 18.6915C124.299 18.9416 124.149 19.2543 124.074 19.6295H118.633C118.758 18.4288 119.083 17.4283 119.609 16.6278C120.159 15.8024 120.847 15.1395 121.672 14.6392C122.498 14.139 123.411 13.7888 124.411 13.5887C125.437 13.3635 126.487 13.251 127.563 13.251C128.163 13.251 128.776 13.2885 129.401 13.3635C130.027 13.4136 130.64 13.5386 131.24 13.7387C131.84 13.9138 132.403 14.164 132.928 14.4892C133.479 14.7893 133.991 15.1895 134.467 15.6898C135.317 16.6654 135.843 17.791 136.043 19.0667C136.268 20.3174 136.368 21.5431 136.343 22.7437V33.4371H131.503L131.39 30.9983ZM131.202 24.6948H127.338C126.963 24.6948 126.537 24.7323 126.062 24.8074C125.587 24.8824 125.174 25.02 124.824 25.2201C124.474 25.4202 124.174 25.6828 123.923 26.008C123.698 26.3332 123.586 26.7334 123.586 27.2087C123.586 27.6089 123.661 27.9591 123.811 28.2593C123.986 28.5594 124.199 28.8096 124.449 29.0097C124.724 29.2098 125.049 29.3724 125.424 29.4974C125.799 29.5975 126.175 29.6475 126.55 29.6475C127.275 29.6725 127.951 29.5475 128.576 29.2723C129.226 28.9972 129.789 28.6095 130.264 28.1092C130.565 27.709 130.79 27.2587 130.94 26.7584C131.115 26.2331 131.202 25.5453 131.202 24.6948Z" fill="#9F9F9F"/>
<path d="M109.453 31.4112C108.702 32.2617 107.802 32.862 106.751 33.2122C105.7 33.5624 104.562 33.7375 103.337 33.7375C102.111 33.7375 100.91 33.5499 99.7347 33.1747C98.5841 32.7744 97.5835 32.1366 96.7331 31.2611C95.7825 30.2606 95.1197 29.1099 94.7445 27.8092C94.3692 26.5085 94.1816 25.1702 94.1816 23.7945C94.1816 20.5427 95.0821 17.9413 96.8831 15.9902C97.6586 15.1397 98.6591 14.4768 99.8848 14.0016C101.135 13.5263 102.474 13.3012 103.9 13.3262C104.825 13.2762 105.826 13.4388 106.901 13.814C107.977 14.1892 108.902 14.8145 109.678 15.69L110.241 13.6639H114.818V32.1991C114.818 32.9996 114.768 33.7875 114.668 34.5629C114.593 35.3634 114.455 36.1263 114.255 36.8517C114.055 37.6021 113.755 38.315 113.355 38.9904C112.904 39.8158 112.354 40.5162 111.704 41.0915C111.078 41.6669 110.378 42.1421 109.603 42.5173C108.827 42.9175 108.002 43.2052 107.126 43.3803C106.251 43.5554 105.363 43.6429 104.462 43.6429C103.312 43.6429 102.211 43.5054 101.16 43.2302C100.11 42.9801 99.1469 42.5548 98.2714 41.9545C97.4209 41.3792 96.708 40.6413 96.1327 39.7408C95.5824 38.8403 95.2197 37.7647 95.0446 36.514H100.673C100.773 37.1143 101.173 37.6521 101.873 38.1274C102.574 38.6027 103.424 38.8403 104.425 38.8403C105.5 38.8403 106.376 38.6277 107.051 38.2024C107.752 37.7772 108.277 37.2144 108.627 36.514C108.977 35.8136 109.202 35.0132 109.302 34.1127C109.403 33.2122 109.453 32.3117 109.453 31.4112ZM104.537 29.0474C105.363 29.0474 106.088 28.8973 106.714 28.5971C107.364 28.297 107.889 27.8968 108.289 27.3965C108.69 26.8712 108.99 26.2709 109.19 25.5955C109.39 24.8951 109.49 24.1572 109.49 23.3818C109.49 21.8309 109.052 20.5552 108.177 19.5546C107.326 18.5291 106.101 18.0038 104.5 17.9788C103.674 17.9788 102.936 18.1289 102.286 18.429C101.661 18.7292 101.135 19.1294 100.71 19.6297C100.31 20.13 100.01 20.7178 99.8097 21.3932C99.6096 22.0685 99.5096 22.7939 99.5096 23.5694C99.5096 24.3948 99.6096 25.1452 99.8097 25.8206C100.035 26.471 100.36 27.0463 100.785 27.5466C101.211 28.0218 101.736 28.397 102.361 28.6722C102.987 28.9223 103.712 29.0474 104.537 29.0474Z" fill="#9F9F9F"/>
<path d="M85.0509 16.1406C85.8513 15.1901 86.7018 14.4772 87.6023 14.002C88.5278 13.5267 89.6284 13.2891 90.9041 13.2891C91.2293 13.2891 91.542 13.3016 91.8422 13.3266C92.1423 13.3516 92.4175 13.3891 92.6676 13.4391V18.3168C92.0923 18.3168 91.5045 18.3293 90.9041 18.3544C90.3288 18.3544 89.7785 18.4044 89.2532 18.5044C88.7279 18.6045 88.2152 18.7671 87.7149 18.9922C87.2396 19.1923 86.8144 19.4925 86.4392 19.8927C85.8639 20.5431 85.5012 21.2435 85.3511 21.9939C85.226 22.7443 85.1635 23.5947 85.1635 24.5453V33.4377H79.873V13.6643H84.7507L85.0509 16.1406Z" fill="#9F9F9F"/>
<path d="M66.459 33.7373C63.2573 33.7373 60.7934 32.8368 59.0674 31.0358C57.3415 29.2098 56.4785 26.6834 56.4785 23.4566C56.4785 21.9058 56.7036 20.505 57.1539 19.2543C57.6292 17.9786 58.2795 16.8905 59.105 15.99C59.9554 15.0895 60.9935 14.4141 62.2192 13.9639C63.4699 13.4886 64.8832 13.251 66.459 13.251C68.0099 13.251 69.3981 13.4886 70.6238 13.9639C71.8745 14.4141 72.9251 15.0895 73.7756 15.99C74.651 16.8905 75.3139 17.9786 75.7642 19.2543C76.2394 20.505 76.4771 21.9058 76.4771 23.4566C76.4771 26.7084 75.6016 29.2348 73.8506 31.0358C72.1247 32.8368 69.6608 33.7373 66.459 33.7373ZM66.459 17.9786C64.8331 17.9786 63.6325 18.5039 62.857 19.5545C62.0816 20.605 61.6939 21.9183 61.6939 23.4941C61.6939 25.095 62.0816 26.4207 62.857 27.4713C63.6325 28.5219 64.8331 29.0472 66.459 29.0472C68.0849 29.0472 69.2731 28.5219 70.0235 27.4713C70.7739 26.4207 71.1491 25.095 71.1491 23.4941C71.1491 21.9183 70.7739 20.605 70.0235 19.5545C69.2731 18.5039 68.0849 17.9786 66.459 17.9786Z" fill="#9F9F9F"/>
<path d="M20.3124 4.47373C20.3124 2.9317 19.056 1.66099 17.53 1.8828C15.9468 2.11293 14.3946 2.5391 12.9099 3.15409C10.563 4.1262 8.43061 5.55105 6.63438 7.34727C4.83815 9.1435 3.41331 11.2759 2.4412 13.6228C1.46909 15.9697 0.968749 18.4851 0.968749 21.0253C0.968749 23.5656 1.46909 26.0809 2.4412 28.4278C3.41331 30.7747 4.83815 32.9071 6.63438 34.7034C8.43061 36.4996 10.563 37.9244 12.9099 38.8965C15.2568 39.8687 17.7722 40.369 20.3124 40.369L20.3124 31.084C18.9915 31.084 17.6835 30.8238 16.4631 30.3184C15.2427 29.8129 14.1339 29.0719 13.1998 28.1379C12.2658 27.2039 11.5249 26.095 11.0194 24.8746C10.5139 23.6542 10.2537 22.3462 10.2537 21.0253C10.2537 19.7044 10.5139 18.3964 11.0194 17.176C11.5249 15.9556 12.2658 14.8468 13.1998 13.9127C14.1339 12.9787 15.2427 12.2378 16.4631 11.7323C16.8205 11.5842 17.1855 11.4572 17.556 11.3516C19.039 10.9291 20.3124 9.71655 20.3124 8.17452L20.3124 4.47373Z" fill="#9F9F9F"/>
<path d="M36.6024 21.0254C38.1445 21.0254 39.4152 22.2818 39.1934 23.8078C38.9632 25.391 38.5371 26.9432 37.9221 28.4279C36.95 30.7748 35.5251 32.9072 33.7289 34.7034C31.9327 36.4997 29.8002 37.9245 27.4534 38.8966C25.1065 39.8687 22.5911 40.3691 20.0509 40.3691L20.0509 31.0841C21.3718 31.0841 22.6798 30.8239 23.9002 30.3184C25.1205 29.8129 26.2294 29.072 27.1634 28.138C28.0975 27.2039 28.8384 26.0951 29.3439 24.8747C29.4919 24.5173 29.6189 24.1523 29.7245 23.7818C30.1471 22.2988 31.3596 21.0254 32.9017 21.0254L36.6024 21.0254Z" fill="#9F9F9F"/>
<path d="M39.8661 1.69141C41.4081 1.69141 42.6789 2.94784 42.457 4.47383C42.2269 6.05705 41.8007 7.6092 41.1858 9.09391C40.2136 11.4408 38.7888 13.5732 36.9926 15.3695C35.1963 17.1657 33.0639 18.5905 30.717 19.5626C29.2323 20.1776 27.6802 20.6038 26.097 20.8339C24.571 21.0557 23.3145 19.785 23.3145 18.243L23.3145 14.5422C23.3145 13.0002 24.5879 11.7876 26.0709 11.3651C26.4415 11.2595 26.8064 11.1325 27.1638 10.9844C28.3842 10.4789 29.4931 9.73803 30.4271 8.80399C31.3612 7.86995 32.1021 6.76109 32.6076 5.54071C32.7556 5.18329 32.8826 4.81836 32.9882 4.44779C33.4108 2.96479 34.6233 1.69141 36.1653 1.69141L39.8661 1.69141Z" fill="#9F9F9F"/>
</svg>
