<svg width="24" height="25" viewBox="0 0 24 25" fill="none" xmlns="http://www.w3.org/2000/svg">
<path d="M7.28864 12.7027C8.27473 14.739 9.92135 16.3814 11.9602 17.3623C12.1106 17.4335 12.277 17.4643 12.4429 17.4517C12.6088 17.4391 12.7686 17.3835 12.9065 17.2904L15.9011 15.29C16.0334 15.2003 16.1863 15.1455 16.3455 15.1309C16.5047 15.1162 16.665 15.1421 16.8114 15.2062L22.4173 17.6138C22.6089 17.6936 22.769 17.8341 22.8729 18.0137C22.9768 18.1934 23.0187 18.4022 22.9923 18.608C22.8146 19.9948 22.1377 21.2693 21.0883 22.1931C20.0388 23.1169 18.6887 23.6266 17.2906 23.627C12.9701 23.627 8.82648 21.9106 5.7714 18.8556C2.71632 15.8005 1 11.6569 1 7.33637C1.00032 5.93825 1.51006 4.58815 2.43384 3.53869C3.35763 2.48924 4.63215 1.81234 6.01894 1.63467C6.22477 1.60823 6.43359 1.65018 6.61324 1.75408C6.79289 1.85797 6.9334 2.01803 7.01314 2.20963L9.42079 7.82748C9.48341 7.97164 9.5096 8.12898 9.49706 8.28565C9.48453 8.44231 9.43366 8.59349 9.34892 8.72586L7.34854 11.7684C7.25948 11.906 7.20721 12.0641 7.19672 12.2277C7.18624 12.3913 7.21789 12.5548 7.28864 12.7027V12.7027Z" stroke="#070707" stroke-width="1.5" stroke-linecap="round" stroke-linejoin="round"/>
</svg>
