<svg width="30" height="30" viewBox="0 0 30 30" fill="none" xmlns="http://www.w3.org/2000/svg">
<path d="M5 14.0767H24.3846" stroke="#235CF2" stroke-width="1.5" stroke-linecap="round" stroke-linejoin="round"/>
<path d="M11.0017 23.3081L8.23242 27.0004" stroke="#235CF2" stroke-width="1.5" stroke-linecap="round" stroke-linejoin="round"/>
<path d="M18.3848 23.3081L21.154 27.0004" stroke="#235CF2" stroke-width="1.5" stroke-linecap="round" stroke-linejoin="round"/>
<path d="M21.6154 3H7.76923C6.23983 3 5 4.23983 5 5.76923V20.5385C5 22.0679 6.23983 23.3077 7.76923 23.3077H21.6154C23.1448 23.3077 24.3846 22.0679 24.3846 20.5385V5.76923C24.3846 4.23983 23.1448 3 21.6154 3Z" stroke="#235CF2" stroke-width="1.5" stroke-linecap="round" stroke-linejoin="round"/>
<path d="M10.8229 19.0736C10.8229 19.3796 10.5749 19.6276 10.2689 19.6276C9.9629 19.6276 9.71484 19.3796 9.71484 19.0736C9.71484 18.7676 9.9629 18.5195 10.2689 18.5195C10.5749 18.5195 10.8229 18.7676 10.8229 19.0736Z" fill="#235CF2" stroke="#235CF2" stroke-width="1.5"/>
<path d="M19.6706 19.0736C19.6706 19.3796 19.4225 19.6276 19.1165 19.6276C18.8106 19.6276 18.5625 19.3796 18.5625 19.0736C18.5625 18.7676 18.8106 18.5195 19.1165 18.5195C19.4225 18.5195 19.6706 18.7676 19.6706 19.0736Z" fill="#235CF2" stroke="#235CF2" stroke-width="1.5"/>
</svg>
