<svg width="30" height="30" viewBox="0 0 30 30" fill="none" xmlns="http://www.w3.org/2000/svg">
<path d="M21 8.00002H26.325C26.5242 7.99872 26.7192 8.05772 26.8843 8.16927C27.0494 8.28081 27.1769 8.43969 27.25 8.62502L29 13" stroke="#235CF2" stroke-width="1.5" stroke-linecap="round" stroke-linejoin="round"/>
<path d="M1 16H21" stroke="#235CF2" stroke-width="1.5" stroke-linecap="round" stroke-linejoin="round"/>
<path d="M22.5 25C24.1569 25 25.5 23.6569 25.5 22C25.5 20.3431 24.1569 19 22.5 19C20.8431 19 19.5 20.3431 19.5 22C19.5 23.6569 20.8431 25 22.5 25Z" stroke="#235CF2" stroke-width="1.5" stroke-miterlimit="10"/>
<path d="M7.5 25C9.15685 25 10.5 23.6569 10.5 22C10.5 20.3431 9.15685 19 7.5 19C5.84315 19 4.5 20.3431 4.5 22C4.5 23.6569 5.84315 25 7.5 25Z" stroke="#235CF2" stroke-width="1.5" stroke-miterlimit="10"/>
<path d="M19.5 22H10.5" stroke="#235CF2" stroke-width="1.5" stroke-linecap="round" stroke-linejoin="round"/>
<path d="M4.5 22H2C1.73478 22 1.48043 21.8946 1.29289 21.7071C1.10536 21.5196 1 21.2652 1 21V7C1 6.73478 1.10536 6.48043 1.29289 6.29289C1.48043 6.10536 1.73478 6 2 6H21V19.4" stroke="#235CF2" stroke-width="1.5" stroke-linecap="round" stroke-linejoin="round"/>
<path d="M21 13H29V21C29 21.2652 28.8946 21.5196 28.7071 21.7071C28.5196 21.8946 28.2652 22 28 22H25.5" stroke="#235CF2" stroke-width="1.5" stroke-linecap="round" stroke-linejoin="round"/>
</svg>
