<svg width="187" height="44" viewBox="0 0 187 44" fill="none" xmlns="http://www.w3.org/2000/svg">
<path d="M174.84 13.8018C179.868 13.8018 183.995 18.1166 183.995 23.7072C183.995 29.2978 179.868 33.6127 174.84 33.6127C172.101 33.6127 170.113 32.5996 168.762 30.8737V40.5915H163.922V14.327H168.762V16.5408C170.113 14.8148 172.101 13.8018 174.84 13.8018ZM173.94 28.9976C176.942 28.9976 179.155 26.859 179.155 23.7072C179.155 20.5555 176.942 18.4168 173.94 18.4168C170.976 18.4168 168.762 20.5555 168.762 23.7072C168.762 26.859 170.976 28.9976 173.94 28.9976Z" fill="#9F9F9F"/>
<path d="M154.647 14.3271H159.487V33.0875H154.647V30.9863C153.521 32.6748 151.57 33.6128 149.056 33.6128C145.079 33.6128 141.965 30.8363 141.965 25.846V14.3271H146.805V25.2457C146.805 27.7971 148.343 29.1103 150.52 29.1103C152.883 29.1103 154.647 27.722 154.647 24.4577V14.3271Z" fill="#9F9F9F"/>
<path d="M138.561 18.9797H134.321V26.784C134.321 28.8101 135.785 28.8476 138.561 28.6976V33.0875C131.77 33.8379 129.481 31.8493 129.481 26.784V18.9797H126.217V14.3271H129.481V10.5375L134.321 9.07422V14.3271H138.561V18.9797Z" fill="#9F9F9F"/>
<path d="M118.784 17.5532C119.759 15.0018 122.123 13.9512 124.487 13.9512V19.3542C121.973 19.054 118.784 20.1796 118.784 24.1193V33.0867H113.943V14.3264H118.784V17.5532Z" fill="#9F9F9F"/>
<path d="M104.712 14.327H109.552V33.0874H104.712V30.8737C103.361 32.5621 101.335 33.6127 98.596 33.6127C93.6058 33.6127 89.4785 29.2978 89.4785 23.7072C89.4785 18.1166 93.6058 13.8018 98.596 13.8018C101.335 13.8018 103.361 14.8523 104.712 16.5408V14.327ZM99.4965 28.9976C102.498 28.9976 104.712 26.859 104.712 23.7072C104.712 20.5555 102.498 18.4168 99.4965 18.4168C96.5324 18.4168 94.3187 20.5555 94.3187 23.7072C94.3187 26.859 96.5324 28.9976 99.4965 28.9976Z" fill="#9F9F9F"/>
<path d="M87.6295 18.9797H83.3896V26.784C83.3896 28.8101 84.8529 28.8476 87.6295 28.6976V33.0875C80.8382 33.8379 78.5495 31.8493 78.5495 26.784V18.9797H75.2852V14.3271H78.5495V10.5375L83.3896 9.07422V14.3271H87.6295V18.9797Z" fill="#9F9F9F"/>
<path d="M64.6547 19.655C64.6547 22.4315 74.3351 20.7056 74.3351 27.6094C74.3351 31.6616 70.8081 33.6127 66.7934 33.6127C63.0413 33.6127 60.2648 32.0368 58.9141 29.1477L63.1164 26.7839C63.6417 28.3223 64.9174 29.2228 66.7934 29.2228C68.3318 29.2228 69.3823 28.6975 69.3823 27.6094C69.3823 24.8704 59.702 26.3712 59.702 19.7675C59.702 15.9404 62.9663 13.8018 66.8309 13.8018C69.8701 13.8018 72.4966 15.19 73.9599 17.779L69.8326 20.0302C69.2698 18.8295 68.2192 18.1166 66.8309 18.1166C65.6303 18.1166 64.6547 18.6419 64.6547 19.655Z" fill="#9F9F9F"/>
<path d="M14.1679 25.7651L5.69121 34.3287C4.51342 35.5185 2.58841 35.5101 1.42113 34.3099C0.27912 33.1357 0.293903 31.2614 1.4543 30.1054L12.8191 18.7833C14.0498 17.5573 16.0395 17.5553 17.2726 18.7788L22.6493 24.1139L31.67 14.9752H25.5383C23.9428 14.9752 22.6493 13.6818 22.6493 12.0863C22.6493 10.4907 23.9428 9.19727 25.5383 9.19727H38.5938C40.3381 9.19727 41.752 10.6112 41.752 12.3554V25.2931C41.752 26.9537 40.4058 28.3 38.7451 28.3C37.0844 28.3 35.7382 26.9537 35.7382 25.2931V19.1613L25.2767 29.5757C23.8164 31.0295 21.4621 31.0501 19.9766 29.6221L15.9411 25.743C15.4433 25.2646 14.6536 25.2744 14.1679 25.7651Z" fill="#9F9F9F"/>
</svg>
