<svg width="161" height="44" viewBox="0 0 161 44" fill="none" xmlns="http://www.w3.org/2000/svg">
<path d="M142.665 33.9412C141.164 33.0407 139.964 31.8401 139.063 30.3392C138.163 28.8384 137.75 27.1875 137.75 25.3865C137.75 23.623 138.163 21.9721 139.063 20.4713C139.964 18.9705 141.164 17.7698 142.665 16.8693C144.166 15.9688 145.817 15.5186 147.618 15.5186C149.381 15.5186 151.032 15.9688 152.533 16.8693C154.034 17.7698 155.235 18.9705 156.135 20.4713C157.036 21.9721 157.486 23.623 157.486 25.3865C157.486 27.1875 157.036 28.8384 156.135 30.3392C155.235 31.8401 154.034 33.0407 152.533 33.9412C151.032 34.8417 149.381 35.2544 147.618 35.2544C145.817 35.2544 144.166 34.8417 142.665 33.9412ZM150.207 29.9265C150.995 29.4763 151.633 28.8384 152.12 28.013C152.571 27.225 152.833 26.362 152.833 25.3865C152.833 24.4485 152.571 23.5855 152.12 22.7601C151.633 21.9721 150.995 21.3343 150.207 20.8465C149.381 20.3962 148.518 20.1336 147.58 20.1336C146.605 20.1336 145.742 20.3962 144.954 20.8465C144.129 21.3343 143.491 21.9721 143.04 22.7601C142.59 23.5855 142.365 24.4485 142.365 25.3865C142.365 26.362 142.59 27.225 143.04 28.013C143.491 28.8384 144.129 29.4763 144.954 29.9265C145.742 30.3768 146.605 30.6019 147.58 30.6019C148.518 30.6019 149.381 30.3768 150.207 29.9265Z" fill="#9F9F9F"/>
<path d="M130.903 12.1418C130.377 11.6916 130.152 11.0162 130.152 10.1907C130.152 9.36529 130.377 8.68992 130.903 8.20215C131.391 7.7519 132.066 7.48926 132.966 7.48926C133.829 7.48926 134.505 7.7519 135.03 8.20215C135.518 8.68992 135.78 9.36529 135.78 10.1907C135.78 11.0162 135.518 11.6541 134.993 12.1418C134.467 12.6296 133.792 12.8547 132.966 12.8547C132.066 12.8547 131.391 12.6296 130.903 12.1418ZM130.603 34.7293V15.9689H135.255V34.7293H130.603Z" fill="#9F9F9F"/>
<path d="M121.502 8.46387H126.155V34.7284H121.502V32.9274C120.639 33.6778 119.701 34.2781 118.651 34.6533C117.6 35.066 116.512 35.2537 115.386 35.2537C113.473 35.2537 111.822 34.8409 110.396 33.978C108.97 33.1525 107.845 31.9518 107.094 30.451C106.344 28.9502 105.969 27.2617 105.969 25.3857C105.969 23.5097 106.344 21.8212 107.094 20.3204C107.845 18.8196 108.97 17.6564 110.396 16.7935C111.822 15.9305 113.473 15.4802 115.386 15.4802C116.512 15.4802 117.563 15.7054 118.613 16.1181C119.664 16.5308 120.602 17.0936 121.502 17.8065V8.46387ZM118.763 30.1133C119.589 29.6631 120.264 28.9877 120.752 28.1622C121.24 27.3368 121.502 26.3988 121.502 25.3482C121.502 23.7723 120.94 22.4966 119.889 21.4836C118.838 20.508 117.525 19.9827 115.987 19.9827C114.411 19.9827 113.098 20.508 112.085 21.5211C111.072 22.5341 110.584 23.8098 110.584 25.3857C110.584 26.9616 111.072 28.2748 112.085 29.2879C113.098 30.3009 114.411 30.7887 115.987 30.7887C117 30.7887 117.938 30.5636 118.763 30.1133Z" fill="#9F9F9F"/>
<path d="M98.4697 15.9688H103.122V34.7291H98.4697V33.1532C97.7944 33.7911 97.0439 34.2789 96.2185 34.6541C95.393 35.0293 94.4925 35.2169 93.592 35.2169C92.4664 35.2169 91.3408 34.9917 90.2152 34.5415C89.0895 34.0913 88.114 33.2283 87.2886 32.0276C86.4631 30.8269 86.0879 29.2136 86.0879 27.1874V15.9688H90.7405V27.1874C90.7405 28.6132 91.1157 29.6263 91.9036 30.2266C92.6915 30.8269 93.6296 31.1271 94.6801 31.1271C95.7307 31.1271 96.5937 30.7894 97.3441 30.039C98.0945 29.2886 98.4697 28.1255 98.4697 26.4745V15.9688Z" fill="#9F9F9F"/>
<path d="M79.8638 30.077C80.239 30.4147 80.8769 30.5648 81.7774 30.5648C82.3027 30.5648 82.8655 30.5273 83.5033 30.4522V34.7296C82.3027 34.8797 81.3271 34.9172 80.5767 34.9172C78.5506 34.9172 77.0498 34.4669 76.0742 33.5664C75.0987 32.666 74.6109 31.015 74.6109 28.6137V20.134H71.084V15.9692H74.6109V11.3542L79.2635 9.77832V15.9692H83.4283V20.134H79.2635V28.3135C79.2635 29.1765 79.4511 29.7769 79.8638 30.077Z" fill="#9F9F9F"/>
<path d="M60.2187 22.4228C60.819 22.6854 61.757 22.9481 63.0327 23.2107C64.4585 23.5109 65.6967 23.8486 66.6722 24.2238C67.6478 24.599 68.4732 25.1993 69.1861 26.0248C69.899 26.8502 70.2742 27.9383 70.2742 29.2891C70.2742 30.5272 69.899 31.5778 69.1486 32.4783C68.3982 33.3788 67.4226 34.0917 66.222 34.542C64.9838 34.9922 63.6331 35.2173 62.2073 35.2173C60.2187 35.2173 58.5302 34.8421 57.1045 34.0917C55.6787 33.3413 54.6656 32.2907 53.9902 30.8649L57.8173 28.8763C58.4927 30.6023 59.956 31.4653 62.2073 31.4653C63.1828 31.4653 64.0083 31.2777 64.7212 30.9025C65.3965 30.5272 65.7717 30.002 65.7717 29.2891C65.7717 28.6887 65.4341 28.276 64.7962 27.9758C64.1583 27.6757 63.1453 27.3755 61.7195 27.0003C60.2187 26.6626 59.018 26.3249 58.1175 25.9497C57.1795 25.612 56.3916 25.0867 55.7162 24.3363C55.0408 23.5859 54.7031 22.6104 54.7031 21.3722C54.7031 20.1715 55.0408 19.1585 55.7162 18.258C56.3916 17.3575 57.2921 16.6821 58.4552 16.1943C59.5808 15.7441 60.8565 15.4814 62.2448 15.4814C63.8582 15.4814 65.3215 15.8191 66.5972 16.4945C67.8729 17.1699 68.886 18.1454 69.5988 19.3836L65.8093 21.2972C65.1339 19.9089 63.9707 19.196 62.2448 19.196C61.3443 19.196 60.6689 19.3836 60.1436 19.7588C59.6183 20.134 59.3557 20.6218 59.3557 21.2221C59.3557 21.7474 59.6183 22.1601 60.2187 22.4228Z" fill="#9F9F9F"/>
<mask id="mask0_4523_6429" style="mask-type:alpha" maskUnits="userSpaceOnUse" x="0" y="0" width="43" height="43">
<circle cx="21.7062" cy="21.7218" r="20.8448" fill="#D9D9D9"/>
</mask>
<g mask="url(#mask0_4523_6429)">
<rect x="-4.68945" y="27.0869" width="21.7701" height="21.7701" rx="2.29103" transform="rotate(-15 -4.68945 27.0869)" fill="#9F9F9F"/>
<rect x="21.4375" y="27.0869" width="21.7701" height="21.7701" rx="2.29103" transform="rotate(-15 21.4375 27.0869)" fill="#9F9F9F"/>
<rect x="21.4375" y="0.959961" width="21.7701" height="21.7701" rx="2.29103" transform="rotate(-15 21.4375 0.959961)" fill="#9F9F9F"/>
<rect x="-4.68945" y="0.959961" width="21.7701" height="21.7701" rx="2.29103" transform="rotate(-15 -4.68945 0.959961)" fill="#9F9F9F"/>
</g>
</svg>
