<svg width="32" height="32" viewBox="0 0 32 32" fill="none" xmlns="http://www.w3.org/2000/svg">
<g clip-path="url(#clip0_12_67466)">
<path d="M23.2778 28.0627V25.2779C23.2778 23.8008 22.691 22.3842 21.6465 21.3397C20.6021 20.2953 19.1854 19.7085 17.7083 19.7085H6.56944C5.09234 19.7085 3.67573 20.2953 2.63125 21.3397C1.58678 22.3842 1 23.8008 1 25.2779V28.0627" stroke="#235CF2" stroke-width="1.5" stroke-linecap="round" stroke-linejoin="round"/>
<path d="M12.1398 14.1389C15.2157 14.1389 17.7092 11.6454 17.7092 8.56944C17.7092 5.49353 15.2157 3 12.1398 3C9.06384 3 6.57031 5.49353 6.57031 8.56944C6.57031 11.6454 9.06384 14.1389 12.1398 14.1389Z" stroke="#235CF2" stroke-width="1.5" stroke-linecap="round" stroke-linejoin="round"/>
<path d="M31.6302 28.0623V25.2776C31.6293 24.0436 31.2186 22.8448 30.4625 21.8695C29.7065 20.8942 28.648 20.1977 27.4531 19.8892" stroke="#235CF2" stroke-width="1.5" stroke-linecap="round" stroke-linejoin="round"/>
<path d="M21.8848 3.18066C23.0828 3.4874 24.1446 4.18414 24.9029 5.16103C25.6612 6.13793 26.0728 7.33941 26.0728 8.57606C26.0728 9.81272 25.6612 11.0142 24.9029 11.9911C24.1446 12.968 23.0828 13.6647 21.8848 13.9715" stroke="#235CF2" stroke-width="1.5" stroke-linecap="round" stroke-linejoin="round"/>
</g>
<defs>
<clipPath id="clip0_12_67466">
<rect width="32" height="32" fill="white"/>
</clipPath>
</defs>
</svg>
