<svg width="202" height="48" viewBox="0 0 202 48" fill="none" xmlns="http://www.w3.org/2000/svg">
<path d="M190.149 36.9076C188.062 36.9076 186.232 36.4644 184.659 35.578C183.086 34.663 181.871 33.3905 181.013 31.7607C180.155 30.1308 179.727 28.215 179.727 26.0133C179.727 23.8401 180.155 21.9386 181.013 20.3088C181.871 18.6503 183.086 17.3636 184.659 16.4486C186.232 15.505 188.062 15.0332 190.149 15.0332C192.265 15.0332 194.095 15.505 195.639 16.4486C197.212 17.3922 198.427 18.6932 199.285 20.3517C200.143 21.9815 200.572 23.8544 200.572 25.9704C200.572 26.2849 200.557 26.5995 200.529 26.914C200.529 27.1999 200.5 27.443 200.443 27.6431H184.316V23.4398H196.197L195.339 25.4557C195.339 23.6829 194.91 22.2389 194.052 21.1237C193.223 20.0086 191.922 19.451 190.149 19.451C188.605 19.451 187.361 19.9371 186.418 20.9093C185.474 21.8529 185.002 23.1253 185.002 24.7266V26.9998C185.002 28.6868 185.474 30.0164 186.418 30.9886C187.39 31.9322 188.705 32.404 190.364 32.404C191.822 32.404 192.966 32.1038 193.795 31.5033C194.624 30.9029 195.339 30.1594 195.939 29.273L199.842 31.5033C198.899 33.2476 197.612 34.5915 195.982 35.5351C194.381 36.4501 192.437 36.9076 190.149 36.9076Z" fill="#9F9F9F"/>
<path d="M170.807 15.505L172.222 21.2953V36.4787H166.604V15.505H170.807ZM171.064 24.169L170.035 23.6972V19.4081L170.421 18.9363C170.735 18.4216 171.207 17.864 171.836 17.2635C172.494 16.6631 173.237 16.1484 174.067 15.7195C174.924 15.262 175.811 15.0332 176.726 15.0332C177.183 15.0332 177.598 15.0618 177.97 15.119C178.341 15.1762 178.627 15.2763 178.827 15.4192V20.5232H177.455C175.596 20.5232 174.167 20.8235 173.166 21.424C172.165 21.9958 171.464 22.9108 171.064 24.169Z" fill="#9F9F9F"/>
<path d="M149.844 36.9933C148.272 36.9933 147.014 36.7502 146.07 36.2641C145.126 35.778 144.397 35.1346 143.883 34.334C143.396 33.5048 143.068 32.5612 142.896 31.5032C142.724 30.4452 142.639 29.3444 142.639 28.2006V15.5049H148.257V28.2435C148.257 29.5302 148.529 30.388 149.072 30.817C149.644 31.2459 150.316 31.4603 151.088 31.4603C151.803 31.4603 152.518 31.3316 153.233 31.0743C153.948 30.817 154.62 30.4452 155.249 29.9591C155.906 29.4444 156.45 28.8583 156.878 28.2006L157.565 31.1601H156.192V15.5049H161.811V36.4786H157.608L156.45 32.4897L158.251 32.5326C157.536 33.3618 156.721 34.1196 155.806 34.8058C154.92 35.4921 153.962 36.0354 152.932 36.4357C151.932 36.8074 150.902 36.9933 149.844 36.9933Z" fill="#9F9F9F"/>
<path d="M135.228 36.8644C133.083 36.8644 131.382 36.3068 130.124 35.1917C128.894 34.0479 128.279 32.2322 128.279 29.7445V15.7621L128.193 15.5047L129.352 10.5723H133.898V28.8438C133.898 29.7588 134.112 30.4308 134.541 30.8597C134.999 31.26 135.571 31.4602 136.257 31.4602C136.714 31.4602 137.129 31.4316 137.501 31.3744C137.873 31.2886 138.201 31.2028 138.487 31.117V36.3497C138.03 36.5213 137.544 36.65 137.029 36.7357C136.514 36.8215 135.914 36.8644 135.228 36.8644ZM125.02 20.6945V15.5047H138.487V20.6945H125.02Z" fill="#9F9F9F"/>
<path d="M115.42 15.0332C116.85 15.0332 117.994 15.2763 118.852 15.7623C119.738 16.2484 120.396 16.9061 120.825 17.7353C121.282 18.5646 121.582 19.5082 121.725 20.5661C121.868 21.5955 121.94 22.6678 121.94 23.783V36.4787H116.321V23.7401C116.321 22.4533 116.064 21.5955 115.549 21.1666C115.063 20.7377 114.434 20.5232 113.662 20.5232C112.947 20.5232 112.218 20.6662 111.475 20.9522C110.731 21.2095 110.031 21.5955 109.373 22.1102C108.744 22.5963 108.201 23.1539 107.743 23.783L107.014 20.8664H108.429V36.4787H102.811V15.505H107.014L108.172 19.5368L106.37 19.451C107.114 18.5932 107.957 17.8354 108.901 17.1777C109.873 16.5201 110.903 16.0054 111.989 15.6337C113.076 15.2334 114.22 15.0332 115.42 15.0332Z" fill="#9F9F9F"/>
<path d="M88.9537 36.9076C86.8664 36.9076 85.0364 36.4644 83.4637 35.578C81.891 34.663 80.6758 33.3905 79.818 31.7607C78.9602 30.1308 78.5312 28.215 78.5312 26.0133C78.5312 23.8401 78.9602 21.9386 79.818 20.3088C80.6758 18.6503 81.891 17.3636 83.4637 16.4486C85.0364 15.505 86.8664 15.0332 88.9537 15.0332C91.0697 15.0332 92.8997 15.505 94.4438 16.4486C96.0165 17.3922 97.2317 18.6932 98.0895 20.3517C98.9473 21.9815 99.3763 23.8544 99.3763 25.9704C99.3763 26.2849 99.362 26.5995 99.3334 26.914C99.3334 27.1999 99.3048 27.443 99.2476 27.6431H83.1206V23.4398H95.0014L94.1436 25.4557C94.1436 23.6829 93.7146 22.2389 92.8568 21.1237C92.0276 20.0086 90.7266 19.451 88.9537 19.451C87.4097 19.451 86.1658 19.9371 85.2222 20.9093C84.2786 21.8529 83.8068 23.1253 83.8068 24.7266V26.9998C83.8068 28.6868 84.2786 30.0164 85.2222 30.9886C86.1944 31.9322 87.5098 32.404 89.1682 32.404C90.6265 32.404 91.7703 32.1038 92.5995 31.5033C93.4287 30.9029 94.1436 30.1594 94.744 29.273L98.6471 31.5033C97.7035 33.2476 96.4168 34.5915 94.7869 35.5351C93.1857 36.4501 91.2413 36.9076 88.9537 36.9076Z" fill="#9F9F9F"/>
<path d="M77.6706 15.5049L69.9931 36.4786H64.5889L56.5254 15.5049H62.4443L67.9344 31.5461H66.6048L71.8804 15.5049H77.6706Z" fill="#9F9F9F"/>
<path fill-rule="evenodd" clip-rule="evenodd" d="M16.1621 3.15527C15.4312 3.15527 14.8386 3.74782 14.8386 4.47875V17.0515H14.838C7.1631 17.0515 0.941406 23.2732 0.941406 30.9481C0.941406 38.6229 7.16311 44.8446 14.838 44.8446H27.411C28.142 44.8446 28.7345 44.2521 28.7345 43.5211V30.9484H28.7352C36.4101 30.9484 42.6318 24.7267 42.6318 17.0518C42.6318 9.37698 36.41 3.15527 28.7352 3.15527H16.1621ZM28.7345 30.9484V18.375C28.7345 17.644 28.142 17.0515 27.411 17.0515H14.8386V29.6249C14.8386 30.3558 15.4312 30.9484 16.1621 30.9484H28.7345Z" fill="#9F9F9F"/>
<path d="M16.0122 3.15527C15.3637 3.15527 14.8379 3.68105 14.8379 4.32963L14.8379 17.0518H27.5601C28.2087 17.0518 28.7344 17.5776 28.7344 18.2262L28.7344 30.9484C36.4093 30.9484 42.631 24.7267 42.631 17.0518C42.631 9.37697 36.4093 3.15527 28.7345 3.15527H16.0122Z" fill="#9F9F9F"/>
</svg>
