<svg width="30" height="30" viewBox="0 0 30 30" fill="none" xmlns="http://www.w3.org/2000/svg">
<path d="M10.0828 14.2405L16.0945 6.13075C16.4717 5.62187 17.0677 5.32178 17.7012 5.32178H26.9998C28.1044 5.32178 28.9998 6.21721 28.9998 7.32178V19.8442C28.9998 20.9488 28.1044 21.8442 26.9998 21.8442H11.6895C10.5849 21.8442 9.68945 20.9488 9.68945 19.8442V15.4315C9.68945 15.0026 9.82734 14.5851 10.0828 14.2405Z" stroke="#235CF2" stroke-width="1.5"/>
<path d="M14.0994 24.9337C15.8058 24.9337 17.1891 23.5504 17.1891 21.844C17.1891 20.1377 15.8058 18.7544 14.0994 18.7544C12.3931 18.7544 11.0098 20.1377 11.0098 21.844C11.0098 23.5504 12.3931 24.9337 14.0994 24.9337Z" fill="white" stroke="#235CF2" stroke-width="1.5" stroke-miterlimit="10"/>
<path d="M24.5916 24.9337C26.298 24.9337 27.6813 23.5504 27.6813 21.844C27.6813 20.1377 26.298 18.7544 24.5916 18.7544C22.8852 18.7544 21.502 20.1377 21.502 21.844C21.502 23.5504 22.8852 24.9337 24.5916 24.9337Z" fill="white" stroke="#235CF2" stroke-width="1.5" stroke-miterlimit="10"/>
<path d="M9.68966 5V21.8443H1" stroke="#235CF2" stroke-width="1.5"/>
<path d="M28.9359 15.2344H10.0117" stroke="#235CF2" stroke-width="1.5"/>
</svg>
